<?xml version="1.0" encoding="UTF-8"?>
<svg viewBox="0 0 793.7 1122.5" xmlns="http://www.w3.org/2000/svg" xmlns:xlink="http://www.w3.org/1999/xlink">
 <defs>
  <linearGradient id="bs" x1=".14068" x2=".73185" y1=".64135" y2=".3119" xlink:href="#a"/>
  <linearGradient id="be" x1="-.11856" x2=".64253" y1=".5573" y2=".094763" xlink:href="#a"/>
  <linearGradient id="br" x1=".24686" x2=".76277" y1=".56489" y2=".264" xlink:href="#a"/>
  <linearGradient id="bp" x1=".37547" x2=".82224" y1=".59248" y2=".34886" xlink:href="#a"/>
  <linearGradient id="bo" x1=".28371" x2=".84511" y1=".58687" y2=".34557" xlink:href="#a"/>
  <linearGradient id="bq" x1=".32246" x2=".78981" y1=".66056" y2=".38606" xlink:href="#a"/>
  <linearGradient id="by" x1=".74806" x2=".14532" y1=".66854" y2=".31052" xlink:href="#a"/>
  <linearGradient id="bt" x1=".010097" x2=".98288" y1="1.0027" y2=".007115" xlink:href="#c"/>
  <linearGradient id="bx" x1=".77825" x2=".1778" y1=".6418" y2=".24093" xlink:href="#a"/>
  <linearGradient id="bv" x1=".79971" x2=".37508" y1=".76081" y2=".034242" xlink:href="#a"/>
  <linearGradient id="bu" x1=".72178" x2=".38981" y1=".01416" y2=".97832" xlink:href="#c"/>
  <linearGradient id="bw" x1=".79582" x2=".23014" y1=".73141" y2=".075581" xlink:href="#a"/>
  <linearGradient id="bn" x1=".2557" x2=".8545" y1=".60208" y2=".35452" xlink:href="#a"/>
  <linearGradient id="bm" x1=".27236" x2=".83764" y1=".61184" y2=".3576" xlink:href="#a"/>
  <linearGradient id="cw" x1=".31889" x2=".78103" y1=".61161" y2=".35746" xlink:href="#a"/>
  <linearGradient id="bl" x1=".3189" x2=".78104" y1=".61162" y2=".35747" xlink:href="#a"/>
  <linearGradient id="bk" x1="-5.6e-5" x2=".99994" y1=".5" y2=".5" xlink:href="#bz"/>
  <linearGradient id="bf" x1=".6626" x2=".10247" y1=".75989" y2=".35021" xlink:href="#a"/>
  <linearGradient id="bj" x1="1.3237" x2=".14132" y1=".99106" y2=".050406" xlink:href="#c"/>
  <linearGradient id="bh" x1=".78476" x2=".19588" y1=".58937" y2=".27807" xlink:href="#a"/>
  <linearGradient id="bg" x1=".64536" x2=".13143" y1=".65183" y2=".38396" xlink:href="#a"/>
  <linearGradient id="bi" x1=".80711" x2="-.16443" y1=".80573" y2=".32601" xlink:href="#a"/>
  <linearGradient id="co" x1="-.11858" x2=".64252" y1=".55735" y2=".09477" xlink:href="#a"/>
  <linearGradient id="cn" x1=".010076" x2=".98286" y1="1.0027" y2=".007169" xlink:href="#c"/>
  <linearGradient id="cl" x1=".7997" x2=".37508" y1=".76081" y2=".034286" xlink:href="#a"/>
  <linearGradient id="ck" x1=".79582" x2=".23014" y1=".73139" y2=".075567" xlink:href="#a"/>
  <linearGradient id="cm" x1=".72176" x2=".38979" y1=".01415" y2=".97831" xlink:href="#c"/>
  <linearGradient id="cp" x1=".14066" x2=".73184" y1=".64133" y2=".31188" xlink:href="#a"/>
  <linearGradient id="cv" x1=".2724" x2=".83764" y1=".61185" y2=".35762" xlink:href="#a"/>
  <linearGradient id="cq" x1=".24691" x2=".76277" y1=".56487" y2=".26399" xlink:href="#a"/>
  <linearGradient id="cu" x1=".25568" x2=".85449" y1=".60207" y2=".35451" xlink:href="#a"/>
  <linearGradient id="cs" x1=".37546" x2=".82223" y1=".59249" y2=".34886" xlink:href="#a"/>
  <linearGradient id="cr" x1=".32252" x2=".78987" y1=".66058" y2=".38607" xlink:href="#a"/>
  <linearGradient id="ct" x1=".2837" x2=".8451" y1=".58686" y2=".34556" xlink:href="#a"/>
  <linearGradient id="cj" x1=".77824" x2=".1778" y1=".64181" y2=".24095" xlink:href="#a"/>
  <linearGradient id="ca" x1=".91337" x2=".007146" y1=".86255" y2=".028739" xlink:href="#c"/>
  <linearGradient id="ci" x1=".74805" x2=".14532" y1=".66853" y2=".3105" xlink:href="#a"/>
  <linearGradient id="ch" x1=".66258" x2=".10245" y1=".75994" y2=".35025" xlink:href="#a"/>
  <linearGradient id="cg" x1=".64535" x2=".13142" y1=".65181" y2=".38395" xlink:href="#a"/>
  <linearGradient id="cb" x1=".48721" x2=".7463" y1=".010005" y2=".99401">
   <stop stop-color="#282802" offset="0"/>
   <stop stop-color="#7e652c" offset="1"/>
  </linearGradient>
  <linearGradient id="cf" x1=".78476" x2=".19587" y1=".58935" y2=".27806" xlink:href="#a"/>
  <linearGradient id="cd" x1="1.3237" x2=".14127" y1=".99104" y2=".050454" xlink:href="#c"/>
  <linearGradient id="cc" x1="9e-6" y1=".5" y2=".5" xlink:href="#bz"/>
  <linearGradient id="ce" x1=".80707" x2="-.16446" y1=".80574" y2=".32606" xlink:href="#a"/>
  <linearGradient id="a">
   <stop stop-color="#154a02" offset="0"/>
   <stop stop-color="#2a590b" offset=".5"/>
   <stop stop-color="#154a02" offset="1"/>
  </linearGradient>
  <linearGradient id="c">
   <stop stop-color="#316a0c" offset="0"/>
   <stop stop-color="#1e5505" offset="1"/>
  </linearGradient>
  <linearGradient id="b">
   <stop stop-color="#fff" stop-opacity="0" offset="0"/>
   <stop stop-opacity=".2" offset="1"/>
  </linearGradient>
  <linearGradient id="bz">
   <stop stop-color="#184006" stop-opacity=".1" offset="0"/>
   <stop stop-color="#184006" offset=".34061"/>
   <stop stop-color="#184006" stop-opacity=".1" offset="1"/>
  </linearGradient>
  <radialGradient id="cx" cx="305.63" cy="410.91" r="56.235" gradientTransform="matrix(1 0 0 3.0169 139.7 -870.33)" gradientUnits="userSpaceOnUse" xlink:href="#b"/>
  <radialGradient id="de" cx="305.63" cy="410.91" r="56.235" gradientTransform="matrix(1 0 0 3.0169 41.293 -763.33)" gradientUnits="userSpaceOnUse" xlink:href="#b"/>
  <radialGradient id="dd" cx="-100.49" cy="613.98" r="7.0114" gradientTransform="matrix(.56591 -.042378 .3132 4.1824 217.22 -1901.1)" gradientUnits="userSpaceOnUse" xlink:href="#b"/>
  <radialGradient id="db" cx="-8.0235" cy="557.9" r="41.056" gradientTransform="matrix(1.048 .52984 -.1114 .22036 461.46 546.1)" gradientUnits="userSpaceOnUse" xlink:href="#b"/>
  <radialGradient id="dc" cx="-8.0235" cy="557.9" r="41.056" gradientTransform="matrix(1.048 .52984 -.1114 .22036 321.27 608.92)" gradientUnits="userSpaceOnUse" xlink:href="#b"/>
  <radialGradient id="cy" cx="305.63" cy="410.91" r="56.235" gradientTransform="matrix(1 0 0 3.0169 91.184 -806.4)" gradientUnits="userSpaceOnUse" xlink:href="#b"/>
  <radialGradient id="da" cx="305.63" cy="410.91" r="56.235" gradientTransform="matrix(1 0 0 3.0169 12.523 -738.34)" gradientUnits="userSpaceOnUse" xlink:href="#b"/>
  <radialGradient id="cz" cx="305.63" cy="410.91" r="56.235" gradientTransform="matrix(1 0 0 3.0169 105.12 -715.38)" gradientUnits="userSpaceOnUse" xlink:href="#b"/>
 </defs>
 <g transform="matrix(1.7494 0 0 1.7494 -184.13 -297.32)">
  <g transform="matrix(-1 0 0 1 562.3 -63.147)">
   <path d="m295.22 750.79c1.411-1.2095-16.529-18.746-20.56-22.576-4.0315-3.8299-13.707-9.474-23.584-12.094-9.8771-2.6205-30.639-4.6362-33.058-4.0315-2.4189 0.60468-3.8299 0.60468-3.8299 2.2173s3.4268 11.691 13.707 16.731c10.28 5.0394 40.315 15.118 40.315 15.118l0.6047-2.4189s6.2488 0.80634 11.893 2.4189c5.6441 1.6126 13.102 5.4425 14.513 4.6362z" fill="url(#ca)"/>
   <path d="m217.61 716.12s13.909 4.8378 14.916 6.2488c1.0079 1.411 5.6441 8.4661 7.0551 7.8614 1.411-0.60474-3.0236-5.8456-1.411-5.4425 1.6126 0.40314 5.0394 1.0079 6.4504 3.0236 1.411 2.0158 5.6441 9.0709 7.2566 9.0709 1.6126 0-3.0236-7.4582-1.8142-7.2567 1.2094 0.2016 9.474 3.6284 10.482 4.2331 1.0079 0.60474 6.2488 5.644 7.8614 4.8378 1.6126-0.80627 6.652 2.2174 7.2567 1.411 0.60471-0.80627-5.2409-3.4268-6.652-4.233-1.411-0.80634-9.6756-6.0472-11.49-6.652-1.8142-0.60468-6.4504-1.0079-6.652-2.4189s2.4189-3.0236 4.233-3.4268c1.8142-0.40314 1.0079-2.2173 0.20157-2.2173-0.80627 0-4.4346 1.6126-5.4425 2.822s-1.411 3.2252-1.411 3.2252-6.8535-3.2252-6.8535-3.8299c0-0.60474 5.6441 0 5.6441-0.80627 0-0.80634-8.063 0.40314-9.2724-0.40314-1.2094-0.80634-13.102-5.241-15.118-5.8456-2.0158-0.60474-4.2331-1.2095-5.2409-0.2016z" fill-opacity=".171"/>
   <path d="m295.22 750.59c1.411-1.2095-16.529-18.746-20.56-22.576-4.0315-3.8299-13.707-9.474-23.584-12.094-9.8771-2.6205-30.639-4.6362-33.058-4.0315-2.4189 0.60474-3.8299 0.60474-3.8299 2.2173s3.4268 11.691 13.707 16.731c10.28 5.0394 40.315 15.118 40.315 15.118l0.6047-2.4189s6.2488 0.80634 11.893 2.4189c5.6441 1.6126 13.102 5.4425 14.513 4.6362z" fill="url(#dc)"/>
  </g>
  <path d="m435.41 687.97c1.411-1.2095-16.529-18.746-20.56-22.576-4.0315-3.83-13.707-9.474-23.584-12.094-9.8771-2.6205-30.639-4.6362-33.058-4.0315-2.4189 0.60474-3.8299 0.60474-3.8299 2.2173 0 1.6127 3.4268 11.691 13.707 16.731 10.28 5.0393 40.315 15.118 40.315 15.118l0.6047-2.4189s6.2488 0.8064 11.893 2.419c5.6441 1.6126 13.102 5.4425 14.513 4.6362z" fill="url(#ca)"/>
  <path d="m357.8 653.3s13.909 4.8378 14.916 6.2488c1.0079 1.411 5.6441 8.4662 7.0551 7.8614 1.411-0.60474-3.0236-5.8457-1.411-5.4425 1.6126 0.40308 5.0394 1.0078 6.4504 3.0236s5.644 9.0709 7.2566 9.0709-3.0236-7.4582-1.8142-7.2567c1.2094 0.20154 9.4739 3.6283 10.482 4.233 1.0079 0.60474 6.2488 5.644 7.8614 4.8378 1.6126-0.80627 6.652 2.2174 7.2567 1.411 0.60468-0.80627-5.241-3.4268-6.652-4.233-1.411-0.80627-9.6755-6.0472-11.49-6.652-1.8142-0.60461-6.4504-1.0078-6.652-2.4188s2.4189-3.0237 4.233-3.4268c1.8142-0.4032 1.0079-2.2173 0.2016-2.2173-0.80627 0-4.4346 1.6126-5.4425 2.822s-1.411 3.2251-1.411 3.2251-6.8535-3.2251-6.8535-3.8298c0-0.60474 5.644 0 5.644-0.80627 0-0.8064-8.0629 0.40308-9.2724-0.4032-1.2094-0.80627-13.102-5.241-15.118-5.8456-2.0158-0.60474-4.233-1.2095-5.2409-0.20166z" fill-opacity=".171"/>
  <path d="m435.41 687.77c1.411-1.2095-16.529-18.746-20.56-22.576-4.0315-3.83-13.707-9.474-23.584-12.094-9.8771-2.6205-30.639-4.6362-33.058-4.0315-2.4189 0.60474-3.8299 0.60474-3.8299 2.2173 0 1.6127 3.4268 11.691 13.707 16.731 10.28 5.0393 40.315 15.118 40.315 15.118l0.6047-2.4189s6.2488 0.8064 11.893 2.419c5.6441 1.6126 13.102 5.4425 14.513 4.6362z" fill="url(#db)"/>
  <path d="m357.65 695.34c-2.202-17.215-3.2997-42.264-3.2997-42.264s2.8994-1.5754 2.8994-3.7773c0-2.202-0.8371-4.8379-2.2699-5.902-2.0522-1.524-6.1039-1.2424-8.1394 0.29706-2.1688 1.6403-2.6875 5.9647-1.8016 7.6068 1.1321 2.0984 3.6032 2.8025 3.6032 2.8025s1.201 17.015 1.6014 23.221c0.40039 6.2055 0.80072 17.215 0.80072 17.215s1.6014 4.8043 3.403 4.8043 3.2029-4.0035 3.2029-4.0035z" fill="url(#cb)"/>
  <path d="m357.65 695.34c-2.202-17.215-3.2997-42.264-3.2997-42.264s2.8994-1.5754 2.8994-3.7773c0-2.202-0.8371-4.8379-2.2699-5.902-2.0522-1.524-6.1039-1.2424-8.1394 0.29706-2.1688 1.6403-2.6875 5.9647-1.8016 7.6068 1.1321 2.0984 3.6032 2.8025 3.6032 2.8025s1.201 17.015 1.6014 23.221c0.40039 6.2055 0.80072 17.215 0.80072 17.215s1.6014 4.8043 3.403 4.8043 3.2029-4.0035 3.2029-4.0035z" fill="url(#dd)"/>
  <g transform="matrix(-.15129 .49908 .51323 .11201 54.507 363.38)">
   <path d="m412.37 560.73c-23.86-22.963-47.286-58.646-47.286-58.646l-10.584-0.359s0.71698 12.558 2.511 18.837 21.543 29.307 26.746 35.407c5.202 6.099 28.806 32.577 28.806 32.577l-0.193-27.816z" fill="url(#bl)"/>
   <path d="m410.93 532c-22.441-23.447-41.453-58.435-41.453-58.435l-10.85-0.366s-0.40698 12.823 0.866 19.234c1.272 6.411 19.713 31.107 24.506 37.335s26.603 32.053 26.603 32.053l0.328-29.821z" fill="url(#bm)"/>
   <path d="m411.43 504.15c-19.173-21.928-32.185-52.856-32.185-52.856l-13.252-2.675s0.53799 12.184 1.518 18.168c1.329 8.119 14.215 31.05 18.267 36.875s24.796 30.075 24.796 30.075l0.856-29.587z" fill="url(#bn)"/>
   <path d="m411.9 472.17c-14.428-23.024-22.324-43.478-22.324-43.478l-11.204-5.001s-2.068 14.657-1.413 20.64 12.541 28.31 15.473 34.122c2.932 5.813 19.447 32.376 19.447 32.376l0.021-38.659z" fill="url(#bo)"/>
   <path d="m412.78 445.11c-8.441-19.064-11.752-35.337-11.752-35.337l-7.411-4.379s-4.339 10.514-4.341 15.336c-0.009003 17.188 7.426 25.841 9.867 30.121 2.461 4.313 13.449 23.925 13.449 23.925l0.188-29.666z" fill="url(#bp)"/>
   <path d="m412.57 584.61c-23.246-21.4-45.72-51.005-45.72-51.005l-11.448-0.124s2.285 16.777 6.091 23.829c5.231 9.689 20.38 18.156 25.566 23.316s25.577 20.862 25.577 20.862l-0.066-16.878z" fill="url(#bq)"/>
   <path d="m412.56 600.53c-23.246-21.4-42.202-33.381-42.202-33.381l-9.108 0.656s2.406 7.941 5.312 14.077c4.003 8.454 15.449 17.054 21.469 23.316 5.748 5.978 25.069 23.996 25.069 23.996l-0.54-28.664z" fill="url(#br)"/>
   <path d="m412.99 626.4c-23.246-21.4-39.315-34.668-39.315-34.668l-5.402-0.32s2.601 11.062 5.507 17.198c4.002 8.454 13.693 16.079 19.714 22.341 5.747 5.977 20.024 17.126 20.024 17.126l-0.528-21.677z" fill="url(#bs)"/>
   <path d="m413.92 647.42c-23.246-21.4-29.72-25.853-29.72-25.853l-5.011-1.294s2.497 7.406 5.506 13.491c2.638 5.333 7.459 9.67 14.058 15.319 6.528 5.588 15.578 11.548 15.578 11.548l-0.411-13.211z" fill="url(#be)"/>
   <path d="m415.27 692.77l-1.5432-33.244-26.154-20.589s10.533 16.579 13.848 23.796c3.3159 7.2169 11.118 28.672 11.118 28.672s-0.19504 2.7307 2.7307 1.3654z" fill="url(#bt)"/>
   <path d="m410.25 447.71s-2.4344-10.622-5.1288-18.65c-9.5575-28.477 0-38.62 0-38.62l4.8763 2.1456s-0.58514-3.3159 0.39011-5.2664 5.4614-6.4366 7.4119-11.898 7.2169-19.7 9.3624-19.7 0.39011 13.263 0.58514 17.945c0.19504 4.6812 1.9505 8.9723 1.5604 10.533-0.39011 1.5604-1.5604 3.5109-1.5604 3.5109l2.5356-0.5851s0.97525 3.7059 0.19507 5.6564c-0.78021 1.9505-0.97525 4.2911-0.97525 4.2911s1.5604 0.58514 2.9258-0.19504c1.3654-0.78021 2.9258-1.7555 2.9258-1.7555s0 5.4614 0.39011 8.7772c0.39011 3.3159-0.39011 10.338-0.39011 10.338s-3.706 8.9723-7.9971 16.189c-4.2911 7.2168-12.231 18.065-12.231 18.065s-1.3654 2.9258-4.8762-0.78021z" fill="url(#bu)"/>
   <path d="m411.8 448.34c11.409-10.783 23.033-34.589 23.033-34.589 3.505 0.62997 6.661-1.188 9.754-3.441 0 0 3.817 8.356 2.936 21.117-1.144 16.562-8.657 24.052-12.211 27.465-4.492 4.313-23.793 14.896-23.793 14.896l0.281-25.448z" fill="url(#bv)"/>
   <path d="m411.36 474.04c15.489-22.599 33.416-32.384 33.416-32.384l14.173-2.502s-0.011017 11.78-1.243 17.672c-1.905 9.108-14.67 22.099-22.035 32.403-7.202 10.075-24.783 19.629-24.783 19.629l0.472-34.818z" fill="url(#bw)"/>
   <path d="m410.99 508.84c25.09-17.668 39.974-41.506 39.974-41.506 3.583 0.884 8.651 0.92401 12.65-0.27499 0 0 1.331 7.203-0.893 15.043-3.046 10.741-21.101 31.239-25.153 37.063-4.052 5.825-27.72 27.744-27.72 27.744l1.142-38.069z" fill="url(#bx)"/>
   <path d="m410.13 546.53c22.44-23.447 46.14-53.279 46.14-53.279 2.737 0.37 5.835 0.55899 10.225 0.10199 0 0-0.543 13.512-3.678 19.703-3.519 6.95-16.22 22.036-26.169 33.264-5.212 5.882-25.822 28.191-25.822 28.191l-0.696-27.981z" fill="url(#by)"/>
   <path d="m411.31 572.75c22.297-24.994 44.294-50.197 44.294-50.197 3.269 0.39795 6.904 0.063965 10.584-0.35901 0 0 0.14398 9.739-4.699 17.274-3.621 5.635-19.319 20.463-24.859 28.152-7.405 10.28-24.944 24.453-24.944 24.453l-0.376-19.323z" fill="url(#bf)"/>
   <path d="m411.82 590.79c23.715-20.463 42.941-45.157 42.941-45.157l9.105 0.501s-1.994 14.416-6.873 22.892c-2.383 4.14-17.411 19.562-23.691 26.597-4.872 5.458-21.19 19.701-21.19 19.701l-0.292-24.534z" fill="url(#bg)"/>
   <path d="m412.71 614.13c21.84-18.275 37.828-37.599 37.828-37.599l7.857 0.187s-2.979 9.9481-5.468 16.264c-6.346 16.11-13.874 19.321-21.145 27.927-5.352 6.334-18.819 15.087-18.819 15.087l-0.253-21.866z" fill="url(#bh)"/>
   <path d="m413.02 635.61c16.372-12.65 26.66-24.825 26.66-24.825l6.339-0.163s-2.757 11.531-5.663 17.667c-4.003 8.453-8.537 11.704-14.558 17.965-5.748 5.978-12.056 9.471-12.056 9.471l-0.722-20.115z" fill="url(#bi)"/>
   <path d="m413.54 692.98l-0.9-37.664c8.037-5 15.973-11.898 22.784-19.351 0 0-7.838 23.508-11.036 34.265-2.157 7.254-6.274 20.704-6.274 20.704s-1.648 3.411-4.573 2.046h-0.001007z" fill="url(#bj)"/>
   <path d="m413.91 675.96c-1.6855-5.7308-3.0339-12.81-5.3937-15.507-2.3597-2.6968-5.3936-5.3937-3.7081-6.0679 1.6855-0.67426 6.405 3.0339 6.405 3.0339s2.0226-5.7308 1.0113-8.4276-5.3936-8.0905-7.4163-9.4389c-2.0226-1.3484-6.7421-5.0566-5.0566-6.0679s6.7421 2.6968 8.4276 1.3484 3.7082-4.7195 3.3711-8.4276c-0.33713-3.7081-1.3484-5.7308-3.3711-6.405-2.0226-0.67419-8.0905-2.6968-10.45-5.7308-2.3597-3.0339-4.0453-4.3823-2.6968-5.0566 1.3484-0.67419 5.3937 3.3711 7.4163 4.0453 2.0226 0.67419 6.0679 2.0226 7.4163 0.3371 1.3484-1.6856 2.0226-14.158 0-15.844-2.0226-1.6856-10.113-5.0566-10.45-7.0792-0.3371-2.0226 3.7082 2.6968 6.405 1.3484s4.3824-6.7421 3.7081-8.7647c-0.67419-2.0226-5.7308-5.7308-7.4163-7.0792s-2.6968-4.3824-2.6968-4.3824 8.4276 4.7195 9.1018 3.371c0.67419-1.3484 1.0113-10.787 1.0113-13.821 0-3.0339-4.7194-9.439-7.4163-11.462-2.6968-2.0226-10.787-7.4163-9.4389-9.1018 1.3484-1.6856 7.7534 4.3823 8.7647 3.7081 1.0113-0.67419-3.371-2.6968-1.6855-4.0453 1.6855-1.3484 6.0679 2.6968 7.0792 1.0114 1.0113-1.6856 3.0339-6.7421 1.6855-10.113-1.3484-3.371-13.147-14.833-11.799-16.855 1.3484-2.0226 6.0679 6.405 8.0905 6.0679s4.0453-4.7195 4.3824-6.0679-0.3371-11.799-1.3484-13.821c-1.0113-2.0226-10.45-13.147-9.1018-14.158 1.3484-1.0113 5.3937 6.0679 7.7534 7.0792s5.0566-0.67422 5.0566-3.0339 0-16.518-1.0113-18.878c-1.0113-2.3597-3.7081-6.405-5.7308-8.4276-2.0226-2.0226 5.0566 1.3484 5.7308-1.3484 0.67419-2.6968 0-9.4389 0-12.473 0-3.0339 2.3597-7.7534 2.0226-10.45-0.3371-2.6968-5.3936-10.787-6.7421-13.147-1.3484-2.3597 3.7081 3.3711 5.7308 4.7195 2.0226 1.3484 3.371-2.0226 2.3597-5.3937-1.0113-3.371-6.405-10.113-7.0792-12.81-0.67422-2.6968-1.3484-7.7534-1.0113-10.45 0.3371-2.6968 3.371 8.7647 5.3936 8.4276 2.0226-0.33713 4.0453-6.405 2.6968-9.776-1.3484-3.371-4.0453-6.0679-2.3597-7.0792 1.6855-1.0113 3.371 6.0679 5.0566 6.0679 1.6855 0 1.6855-7.4163 1.6855-10.45 0-3.0339 7.0792-23.26 7.0792-23.26s-1.6855 12.473-0.67419 13.147c1.0113 0.67419-4.0453 4.7194-3.3711 6.405 0.67422 1.6855 4.7194 1.3484 5.0566 2.6968 0.3371 1.3484-4.7194 2.6968-4.3824 4.3824 0.3371 1.6855 5.3936 2.3597 5.3936 4.7194s-6.7421 2.3597-8.0905 5.0566c-1.3484 2.6968-3.371 7.7534-2.6968 9.776 0.67422 2.0226 6.405-3.371 7.0792-1.0113 0.67419 2.3597-5.7308 5.3937-6.0679 7.4163s3.371 8.4276 2.3597 10.113c-1.0113 1.6856-4.3824 4.7195-4.7194 7.0792-0.3371 2.3597 5.0566 0.67422 5.7308 2.3597 0.67422 1.6855-5.7308 5.0566-5.7308 7.4163s-0.3371 8.7647 1.6855 9.4389c2.0226 0.67419 7.7534-4.3824 10.113-5.0566 2.3597-0.67419 9.1018-7.0792 11.462-5.3937 2.3597 1.6855-2.0226 11.799-0.67419 12.136 1.3484 0.3371 4.7194 3.371 2.3597 5.3936s-9.1018 8.4276-10.45 7.0792c-1.3484-1.3484-0.3371-10.113 2.3597-9.4389 2.6968 0.67419 4.7194-0.33713 3.371-2.3597s-6.0679-5.7308-9.4389-3.0339c-3.371 2.6968-9.4389 6.7421-9.1018 9.4389 0.33713 2.6968 3.3711 5.3936 3.3711 7.7534 0 2.3597-3.7082 7.0792-3.7082 8.4276s-1.0113 10.787-1.0113 12.473c0 1.6855-2.0226 8.4276 0 8.0905s7.0792-4.3823 7.7534-6.7421c0.67419-2.3597 0.67419-6.405 2.3597-7.7534s5.7308-4.7195 7.0792-6.0679 4.0453-5.3937 5.3937-4.7195c1.3484 0.67422-2.6968 5.3937-4.3824 8.0905-1.6855 2.6969-8.7647 16.181-12.136 17.866-3.3711 1.6855-7.7534 2.0226-8.0905 4.7194s-2.6968 8.0904 0.67422 6.7421c3.371-1.3484 11.462-9.1018 12.81-10.45 1.3484-1.3484 4.3824-8.0905 6.0679-7.0792s-2.0226 6.7421-4.0452 8.4276-13.484 10.113-14.158 12.81c-0.67419 2.6968 0 5.7308 1.6855 8.7647s1.0113 6.405 0.3371 8.0905c-0.67419 1.6856-2.6968 5.7308-0.67419 6.405 2.0226 0.67426 7.7534-6.7421 9.776-8.7647s2.6968-5.7308 2.6968-7.0792 7.4163-11.124 9.4389-9.1018c2.0226 2.0226-2.3597 5.0566-3.7082 8.0905-1.3484 3.0339-5.0566 10.113-7.7534 13.147-2.6968 3.0339-11.124 9.1018-12.473 9.4389-1.3484 0.3371-3.034 8.7647 0.3371 9.7761 3.371 1.0113 9.776-1.6856 11.462-2.3597 1.6856-0.67419 7.0792-11.124 9.1018-9.7761 2.0226 1.3484-0.33713 3.034-3.0339 7.0792s-8.0905 11.124-10.113 12.81c-2.0226 1.6856-3.7082 2.6968-4.3824 5.3937-0.67422 2.6968-3.0339 11.124 0 12.473 3.0339 1.3484 9.1018-4.3823 10.45-6.0679 1.3484-1.6855 7.4163-10.787 8.4276-8.7647 1.0113 2.0226-6.405 11.799-9.776 14.496-3.371 2.6968-10.113 7.4163-10.45 9.776-0.3371 2.3597-2.0226 8.4276 0.3371 10.113 2.3597 1.6855 7.7534 1.0113 10.113 0.67419 2.3597-0.3371 7.0792-12.81 9.4389-11.124 2.3597 1.6856-6.7421 14.496-10.113 17.529-3.371 3.0339-9.1018 4.3823-8.7647 6.405 0.3371 2.0226-1.3484 10.787 2.0226 11.462 3.371 0.67419 8.4276-5.0566 10.45-6.7421 2.0226-1.6856 2.3597-4.0453 3.0339-5.3937 0.67422-1.3484 1.6855-0.67419 3.7082-2.3597 2.0226-1.6855 5.0566-10.787 6.7421-9.1018 1.6855 1.6856-3.7081 9.1018-5.0566 11.124-1.3484 2.0226-8.7647 9.776-9.776 12.136-1.0113 2.3597-2.6968 7.0792-4.0453 9.1018-1.3484 2.0226 0.67422 13.147-1.3484 15.844-2.0226 2.6968-4.0453 9.1018-4.0453 12.136 0 3.0339 0 13.147-5.0566 14.158z" fill="url(#bk)" fill-opacity=".5"/>
   <g fill="none" stroke-linecap="round" stroke-opacity=".2" stroke-width="2">
    <path d="m415.1 691.95c-10.169-143.89-1.5254-253.72-1.5254-253.72" stroke="#000"/>
    <path d="m416.65 691.85c-10.169-143.89-1.5254-253.72-1.5254-253.72" stroke="#fff"/>
   </g>
   <path d="m447.93 430.77c-0.26999 3.806-0.85498 7.162-1.688 10.09l13.164-2.32s-0.022003 11.824-1.26 17.747c-0.67499 3.244-2.7 6.96-5.378 10.856 3.466 0.586 7.809 0.496 11.319-0.56302 0 0 1.328 7.252-0.89999 15.112-0.87802 3.153-3.038 7.117-5.761 11.306 2.566 0.31601 5.513 0.42801 9.564 0.02301 0 0-0.56299 13.581-3.713 19.797-1.215 2.409-3.51 5.765-6.413 9.616 3.06 0.271 6.413-0.044983 9.811-0.427 0 0 0.15701 9.774-4.726 17.364-0.96701 1.509-2.835 3.716-5.153 6.284l7.539 0.405s-1.981 14.482-6.886 22.995c-0.83301 1.441-3.173 4.234-6.144 7.567l7.539 0.181s-2.993 9.999-5.491 16.351c-3.443 8.783-7.268 13.738-11.184 17.837l4.253-0.113s-2.768 11.599-5.693 17.748c-1.598 3.378-3.285 5.923-5.108 8.175-1.08 3.311-7.966 24.054-10.937 33.986-2.16 7.297-6.3 20.81-6.3 20.81s-1.486 3.108-4.164 2.23c-1.552 0.067017-1.417-1.757-1.417-1.757s-7.831-21.576-11.162-28.828c-3.33-7.252-13.929-23.918-13.929-23.918l1.733 1.373c-1.913-2.117-3.466-4.256-4.613-6.553-3.016-6.126-5.514-13.559-5.514-13.559l4.523 1.171c-4.005-4.008-7.808-8.333-9.968-12.905-2.926-6.171-5.536-17.296-5.536-17.296l5.423 0.337s0.44998 0.36096 1.283 1.059c-3.511-3.536-6.661-7.252-8.416-10.968-2.926-6.149-5.334-14.144-5.334-14.144l8.822-0.631c-3.533-3.085-6.706-6.419-8.574-9.909-3.826-7.095-6.121-23.964-6.121-23.964l10.036 0.113c-4.253-5.586-7.718-10.631-8.416-13.086-1.8-6.328-2.52-18.941-2.52-18.941l9.924 0.338c-2.633-4.211-4.523-7.747-4.906-9.662-1.283-6.463-0.87701-19.346-0.87701-19.346l10.891 0.36s0.293 0.54102 0.85501 1.554c-1.463-3.378-2.498-6.328-2.835-8.355-0.98999-6.014-1.53-18.266-1.53-18.266l13.276 2.68c-1.237-2.995-2.092-5.495-2.25-6.981-0.67499-6.014 1.418-20.766 1.418-20.766l11.251 5.045s0.13501 0.383 0.45001 1.126c-0.47202-2.747-0.76502-5.788-0.76502-9.144 0.02301-4.842 4.366-15.405 4.366-15.405l7.426 4.37c-0.94498-13.986 4.14-19.414 4.14-19.414l4.883 2.162s-0.58499-3.333 0.405-5.293c0.96802-1.959 5.491-6.464 7.449-11.959 1.958-5.473 7.246-19.797 9.406-19.797 2.138 0 0.383 13.333 0.58499 18.04 0.17999 4.707 1.958 9.009 1.553 10.586-0.383 1.576-1.553 3.536-1.553 3.536l2.543-0.608s0.96799 3.738 0.203 5.698c-0.78799 1.959-0.98999 4.324-0.98999 4.324s1.575 0.58499 2.947-0.203c1.373-0.78799 2.926-1.779 2.926-1.779s0 5.495 0.405 8.828c0.315 2.861-0.203 8.446-0.35998 9.978 3.285 0.36002 6.301-1.397 9.226-3.536 0 0 3.848 8.4 2.948 21.238z" fill="url(#cz)"/>
  </g>
  <g transform="matrix(-.5991 .55672 .55066 .64344 172.82 34.917)">
   <path d="m319.77 537.77c-23.86-22.963-47.286-58.646-47.286-58.646l-10.584-0.359s0.71698 12.558 2.511 18.837 21.543 29.307 26.746 35.407c5.202 6.099 28.806 32.577 28.806 32.577l-0.193-27.816z" fill="url(#bl)"/>
   <path d="m318.33 509.04c-22.441-23.447-41.453-58.435-41.453-58.435l-10.85-0.366s-0.40698 12.823 0.866 19.234c1.272 6.411 19.713 31.107 24.506 37.335s26.603 32.053 26.603 32.053l0.328-29.821z" fill="url(#bm)"/>
   <path d="m318.83 481.19c-19.173-21.928-32.185-52.856-32.185-52.856l-13.252-2.675s0.53799 12.184 1.518 18.168c1.329 8.119 14.215 31.05 18.267 36.875s24.796 30.075 24.796 30.075l0.856-29.587z" fill="url(#bn)"/>
   <path d="m319.3 449.2c-14.428-23.024-22.324-43.478-22.324-43.478l-11.204-5.001s-2.068 14.657-1.413 20.64 12.541 28.31 15.473 34.122c2.932 5.813 19.447 32.376 19.447 32.376l0.021-38.659z" fill="url(#bo)"/>
   <path d="m320.18 422.14c-8.441-19.064-11.752-35.337-11.752-35.337l-7.411-4.379s-4.339 10.514-4.341 15.336c-0.009003 17.188 7.426 25.841 9.867 30.121 2.461 4.313 13.449 23.925 13.449 23.925l0.188-29.666z" fill="url(#bp)"/>
   <path d="m319.97 561.64c-23.246-21.4-45.72-51.005-45.72-51.005l-11.448-0.124s2.285 16.777 6.091 23.829c5.231 9.689 20.38 18.156 25.566 23.316s25.577 20.862 25.577 20.862l-0.066-16.878z" fill="url(#bq)"/>
   <path d="m319.96 577.57c-23.246-21.4-42.202-33.381-42.202-33.381l-9.108 0.656s2.406 7.941 5.312 14.077c4.003 8.454 15.449 17.054 21.469 23.316 5.748 5.978 25.069 23.996 25.069 23.996l-0.54-28.664z" fill="url(#br)"/>
   <path d="m320.39 603.43c-23.246-21.4-39.315-34.668-39.315-34.668l-5.402-0.32s2.601 11.062 5.507 17.198c4.002 8.454 13.693 16.079 19.714 22.341 5.747 5.977 20.024 17.126 20.024 17.126l-0.528-21.677z" fill="url(#bs)"/>
   <path d="m321.33 624.46c-23.246-21.4-29.72-25.853-29.72-25.853l-5.011-1.294s2.497 7.406 5.506 13.491c2.638 5.333 7.459 9.67 14.058 15.319 6.528 5.588 15.578 11.548 15.578 11.548l-0.411-13.211z" fill="url(#be)"/>
   <path d="m322.67 669.8l-1.5432-33.244-26.154-20.589s10.533 16.579 13.848 23.796c3.3159 7.2169 11.118 28.672 11.118 28.672s-0.19504 2.7307 2.7307 1.3654z" fill="url(#bt)"/>
   <path d="m317.65 424.74s-2.4344-10.622-5.1288-18.65c-9.5575-28.477 0-38.62 0-38.62l4.8763 2.1456s-0.58514-3.3159 0.39011-5.2664 5.4614-6.4366 7.4119-11.898 7.2169-19.7 9.3624-19.7 0.39011 13.263 0.58514 17.945c0.19504 4.6812 1.9505 8.9723 1.5604 10.533-0.39011 1.5604-1.5604 3.5109-1.5604 3.5109l2.5356-0.5851s0.97525 3.7059 0.19507 5.6564c-0.78021 1.9505-0.97525 4.2911-0.97525 4.2911s1.5604 0.58514 2.9258-0.19504c1.3654-0.78021 2.9258-1.7555 2.9258-1.7555s0 5.4614 0.39011 8.7772c0.39011 3.3159-0.39011 10.338-0.39011 10.338s-3.706 8.9723-7.9971 16.189c-4.2911 7.2168-12.231 18.065-12.231 18.065s-1.3654 2.9258-4.8762-0.78021z" fill="url(#bu)"/>
   <path d="m319.2 425.37c11.409-10.783 23.033-34.589 23.033-34.589 3.505 0.62997 6.661-1.188 9.754-3.441 0 0 3.817 8.356 2.936 21.117-1.144 16.562-8.657 24.052-12.211 27.465-4.492 4.313-23.793 14.896-23.793 14.896l0.281-25.448z" fill="url(#bv)"/>
   <path d="m318.76 451.08c15.489-22.599 33.416-32.384 33.416-32.384l14.173-2.502s-0.011017 11.78-1.243 17.672c-1.905 9.108-14.67 22.099-22.035 32.403-7.202 10.075-24.783 19.629-24.783 19.629l0.472-34.818z" fill="url(#bw)"/>
   <path d="m318.39 485.88c25.09-17.668 39.974-41.506 39.974-41.506 3.583 0.884 8.651 0.92401 12.65-0.27499 0 0 1.331 7.203-0.893 15.043-3.046 10.741-21.101 31.239-25.153 37.063-4.052 5.825-27.72 27.744-27.72 27.744l1.142-38.069z" fill="url(#bx)"/>
   <path d="m317.53 523.57c22.44-23.447 46.14-53.279 46.14-53.279 2.737 0.37 5.835 0.55899 10.225 0.10199 0 0-0.543 13.512-3.678 19.703-3.519 6.95-16.22 22.036-26.169 33.264-5.212 5.882-25.822 28.191-25.822 28.191l-0.696-27.981z" fill="url(#by)"/>
   <path d="m318.71 549.78c22.297-24.994 44.294-50.197 44.294-50.197 3.269 0.39798 6.904 0.063995 10.584-0.35901 0 0 0.14398 9.739-4.699 17.274-3.621 5.635-19.319 20.463-24.859 28.152-7.405 10.28-24.944 24.453-24.944 24.453l-0.376-19.323z" fill="url(#bf)"/>
   <path d="m319.22 567.83c23.715-20.463 42.941-45.157 42.941-45.157l9.105 0.501s-1.994 14.416-6.873 22.892c-2.383 4.14-17.411 19.562-23.691 26.597-4.872 5.458-21.19 19.701-21.19 19.701l-0.292-24.534z" fill="url(#bg)"/>
   <path d="m320.11 591.16c21.84-18.275 37.828-37.599 37.828-37.599l7.857 0.187s-2.979 9.948-5.468 16.264c-6.346 16.11-13.874 19.321-21.145 27.927-5.352 6.334-18.819 15.087-18.819 15.087l-0.253-21.866z" fill="url(#bh)"/>
   <path d="m320.42 612.65c16.372-12.65 26.66-24.825 26.66-24.825l6.339-0.163s-2.757 11.531-5.663 17.667c-4.003 8.453-8.537 11.704-14.558 17.965-5.748 5.978-12.056 9.471-12.056 9.471l-0.722-20.115z" fill="url(#bi)"/>
   <path d="m320.94 670.01l-0.9-37.664c8.037-5 15.973-11.898 22.784-19.351 0 0-7.838 23.508-11.036 34.265-2.157 7.254-6.274 20.704-6.274 20.704s-1.648 3.411-4.573 2.046h-0.001007z" fill="url(#bj)"/>
   <path d="m321.31 652.99c-1.6855-5.7308-3.0339-12.81-5.3937-15.507-2.3597-2.6968-5.3936-5.3937-3.7081-6.0679 1.6855-0.67426 6.405 3.0339 6.405 3.0339s2.0226-5.7308 1.0113-8.4276-5.3936-8.0905-7.4163-9.4389c-2.0226-1.3484-6.7421-5.0566-5.0566-6.0679s6.7421 2.6968 8.4276 1.3484 3.7082-4.7195 3.3711-8.4276c-0.33713-3.7081-1.3484-5.7308-3.3711-6.405-2.0226-0.67426-8.0905-2.6968-10.45-5.7308-2.3597-3.0339-4.0453-4.3824-2.6968-5.0566 1.3484-0.67419 5.3937 3.371 7.4163 4.0452 2.0226 0.67426 6.0679 2.0226 7.4163 0.3371s2.0226-14.158 0-15.844c-2.0226-1.6856-10.113-5.0565-10.45-7.0792-0.3371-2.0226 3.7082 2.6968 6.405 1.3484s4.3824-6.7421 3.7081-8.7647c-0.67419-2.0226-5.7308-5.7308-7.4163-7.0792s-2.6968-4.3823-2.6968-4.3823 8.4276 4.7194 9.1018 3.371c0.67419-1.3484 1.0113-10.787 1.0113-13.821 0-3.0339-4.7194-9.4389-7.4163-11.462-2.6968-2.0226-10.787-7.4163-9.4389-9.1018 1.3484-1.6856 7.7534 4.3824 8.7647 3.7081 1.0113-0.67419-3.371-2.6968-1.6855-4.0452s6.0679 2.6968 7.0792 1.0113 3.0339-6.7421 1.6855-10.113c-1.3484-3.371-13.147-14.833-11.799-16.855 1.3484-2.0226 6.0679 6.405 8.0905 6.0679s4.0453-4.7194 4.3824-6.0679c0.3371-1.3484-0.3371-11.799-1.3484-13.821-1.0113-2.0226-10.45-13.147-9.1018-14.158 1.3484-1.0113 5.3937 6.0679 7.7534 7.0792s5.0566-0.67422 5.0566-3.0339 0-16.518-1.0113-18.878c-1.0113-2.3597-3.7081-6.405-5.7308-8.4276-2.0226-2.0226 5.0566 1.3484 5.7308-1.3484 0.67419-2.6968 0-9.4389 0-12.473 0-3.0339 2.3597-7.7534 2.0226-10.45-0.3371-2.6968-5.3936-10.787-6.7421-13.147-1.3484-2.3597 3.7081 3.3711 5.7308 4.7195 2.0226 1.3484 3.371-2.0226 2.3597-5.3937-1.0113-3.371-6.405-10.113-7.0792-12.81-0.67422-2.6968-1.3484-7.7534-1.0113-10.45 0.3371-2.6968 3.371 8.7647 5.3936 8.4276 2.0226-0.33713 4.0453-6.405 2.6968-9.776-1.3484-3.371-4.0453-6.0679-2.3597-7.0792 1.6855-1.0113 3.371 6.0679 5.0566 6.0679 1.6855 0 1.6855-7.4163 1.6855-10.45 0-3.0339 7.0792-23.26 7.0792-23.26s-1.6855 12.473-0.67419 13.147c1.0113 0.67419-4.0453 4.7194-3.3711 6.405 0.67422 1.6855 4.7194 1.3484 5.0566 2.6968 0.3371 1.3484-4.7194 2.6968-4.3824 4.3824 0.3371 1.6855 5.3936 2.3597 5.3936 4.7194s-6.7421 2.3597-8.0905 5.0566c-1.3484 2.6968-3.371 7.7534-2.6968 9.776 0.67422 2.0226 6.405-3.371 7.0792-1.0113 0.67419 2.3597-5.7308 5.3937-6.0679 7.4163s3.371 8.4276 2.3597 10.113c-1.0113 1.6856-4.3824 4.7195-4.7194 7.0792-0.3371 2.3597 5.0566 0.67422 5.7308 2.3597 0.67422 1.6855-5.7308 5.0566-5.7308 7.4163s-0.3371 8.7647 1.6855 9.4389c2.0226 0.67419 7.7534-4.3824 10.113-5.0566 2.3597-0.67419 9.1018-7.0792 11.462-5.3937 2.3597 1.6855-2.0226 11.799-0.67419 12.136 1.3484 0.3371 4.7194 3.371 2.3597 5.3936s-9.1018 8.4276-10.45 7.0792c-1.3484-1.3484-0.3371-10.113 2.3597-9.4389 2.6968 0.67419 4.7194-0.33713 3.371-2.3597s-6.0679-5.7308-9.4389-3.0339c-3.371 2.6968-9.4389 6.7421-9.1018 9.4389 0.33713 2.6968 3.3711 5.3936 3.3711 7.7534 0 2.3597-3.7082 7.0792-3.7082 8.4276s-1.0113 10.787-1.0113 12.473c0 1.6855-2.0226 8.4276 0 8.0905s7.0792-4.3823 7.7534-6.7421c0.67419-2.3597 0.67419-6.405 2.3597-7.7534s5.7308-4.7195 7.0792-6.0679 4.0453-5.3937 5.3937-4.7195c1.3484 0.67422-2.6968 5.3937-4.3824 8.0905-1.6855 2.6969-8.7647 16.181-12.136 17.866-3.3711 1.6855-7.7534 2.0226-8.0905 4.7194s-2.6968 8.0905 0.67422 6.7421 11.462-9.1018 12.81-10.45c1.3484-1.3484 4.3824-8.0905 6.0679-7.0792s-2.0226 6.7421-4.0452 8.4276-13.484 10.113-14.158 12.81c-0.67419 2.6968 0 5.7308 1.6855 8.7647s1.0113 6.405 0.3371 8.0905c-0.67419 1.6855-2.6968 5.7308-0.67419 6.405 2.0226 0.67419 7.7534-6.7421 9.776-8.7647s2.6968-5.7308 2.6968-7.0792 7.4163-11.124 9.4389-9.1018c2.0226 2.0226-2.3597 5.0566-3.7082 8.0905-1.3484 3.0339-5.0566 10.113-7.7534 13.147-2.6968 3.0339-11.124 9.1018-12.473 9.4389-1.3484 0.3371-3.034 8.7647 0.3371 9.776 3.371 1.0113 9.776-1.6855 11.462-2.3597 1.6856-0.67419 7.0792-11.124 9.1018-9.776 2.0226 1.3484-0.33713 3.0339-3.0339 7.0792s-8.0905 11.124-10.113 12.81c-2.0226 1.6855-3.7082 2.6968-4.3824 5.3937-0.67422 2.6968-3.0339 11.124 0 12.473 3.0339 1.3484 9.1018-4.3824 10.45-6.0679 1.3484-1.6856 7.4163-10.787 8.4276-8.7647 1.0113 2.0226-6.405 11.799-9.776 14.496-3.371 2.6968-10.113 7.4163-10.45 9.776-0.3371 2.3597-2.0226 8.4276 0.3371 10.113 2.3597 1.6856 7.7534 1.0113 10.113 0.67419 2.3597-0.3371 7.0792-12.81 9.4389-11.124 2.3597 1.6855-6.7421 14.495-10.113 17.529-3.371 3.034-9.1018 4.3824-8.7647 6.405s-1.3484 10.787 2.0226 11.462c3.371 0.67419 8.4276-5.0566 10.45-6.7421 2.0226-1.6855 2.3597-4.0452 3.0339-5.3937 0.67422-1.3484 1.6855-0.67419 3.7082-2.3597 2.0226-1.6856 5.0566-10.787 6.7421-9.1018 1.6855 1.6855-3.7081 9.1018-5.0566 11.124-1.3484 2.0226-8.7647 9.7761-9.776 12.136-1.0113 2.3598-2.6968 7.0792-4.0453 9.1019-1.3484 2.0226 0.67422 13.147-1.3484 15.844-2.0226 2.6968-4.0453 9.1018-4.0453 12.136 0 3.0339 0 13.147-5.0566 14.158z" fill="url(#bk)" fill-opacity=".5"/>
   <g fill="none" stroke-linecap="round" stroke-opacity=".2" stroke-width="2">
    <path d="m322.5 668.99c-10.169-143.89-1.5254-253.72-1.5254-253.72" stroke="#000"/>
    <path d="m324.05 668.88c-10.169-143.89-1.5254-253.72-1.5254-253.72" stroke="#fff"/>
   </g>
   <path d="m355.33 407.8c-0.26999 3.806-0.85498 7.162-1.688 10.09l13.164-2.32s-0.022003 11.824-1.26 17.747c-0.67499 3.244-2.7 6.96-5.378 10.856 3.466 0.586 7.809 0.496 11.319-0.56302 0 0 1.328 7.252-0.89999 15.112-0.87802 3.153-3.038 7.117-5.761 11.306 2.566 0.31601 5.513 0.42801 9.564 0.02301 0 0-0.56299 13.581-3.713 19.797-1.215 2.409-3.51 5.765-6.413 9.616 3.06 0.271 6.413-0.044983 9.811-0.427 0 0 0.15701 9.774-4.726 17.364-0.96701 1.509-2.835 3.716-5.153 6.284l7.539 0.405s-1.981 14.482-6.886 22.995c-0.83301 1.441-3.173 4.234-6.144 7.567l7.539 0.181s-2.993 9.999-5.491 16.351c-3.443 8.783-7.268 13.738-11.184 17.837l4.253-0.113s-2.768 11.599-5.693 17.748c-1.598 3.378-3.285 5.923-5.108 8.175-1.08 3.311-7.966 24.054-10.937 33.986-2.16 7.297-6.3 20.81-6.3 20.81s-1.486 3.108-4.164 2.23c-1.552 0.067017-1.417-1.757-1.417-1.757s-7.831-21.576-11.162-28.828c-3.33-7.252-13.929-23.918-13.929-23.918l1.733 1.373c-1.913-2.117-3.466-4.256-4.613-6.553-3.016-6.126-5.514-13.559-5.514-13.559l4.523 1.171c-4.005-4.008-7.808-8.333-9.968-12.905-2.926-6.171-5.536-17.296-5.536-17.296l5.423 0.337s0.44998 0.36102 1.283 1.059c-3.511-3.536-6.661-7.252-8.416-10.968-2.926-6.149-5.334-14.144-5.334-14.144l8.822-0.631c-3.533-3.085-6.706-6.419-8.574-9.9091-3.826-7.095-6.121-23.964-6.121-23.964l10.036 0.113c-4.253-5.586-7.718-10.631-8.416-13.086-1.8-6.328-2.52-18.941-2.52-18.941l9.924 0.338c-2.633-4.211-4.523-7.747-4.906-9.662-1.283-6.463-0.87701-19.346-0.87701-19.346l10.891 0.36s0.293 0.54102 0.85501 1.554c-1.463-3.378-2.498-6.328-2.835-8.355-0.98999-6.014-1.53-18.266-1.53-18.266l13.276 2.68c-1.237-2.995-2.092-5.495-2.25-6.981-0.67499-6.014 1.418-20.766 1.418-20.766l11.251 5.045s0.13501 0.383 0.45001 1.126c-0.47202-2.747-0.76502-5.788-0.76502-9.144 0.02301-4.842 4.366-15.405 4.366-15.405l7.426 4.37c-0.94498-13.986 4.14-19.414 4.14-19.414l4.883 2.162s-0.58499-3.333 0.405-5.293c0.96802-1.959 5.491-6.464 7.449-11.959 1.958-5.473 7.246-19.797 9.406-19.797 2.138 0 0.383 13.333 0.58499 18.04 0.17999 4.707 1.958 9.009 1.553 10.586-0.383 1.576-1.553 3.536-1.553 3.536l2.543-0.608s0.96799 3.738 0.203 5.698c-0.78799 1.959-0.98999 4.324-0.98999 4.324s1.575 0.58499 2.947-0.203c1.373-0.78799 2.926-1.779 2.926-1.779s0 5.495 0.405 8.828c0.315 2.861-0.203 8.446-0.35998 9.978 3.285 0.36002 6.301-1.397 9.226-3.536 0 0 3.848 8.4 2.948 21.238z" fill="url(#da)"/>
  </g>
  <path d="m348.54 512.78c-23.86-22.963-47.286-58.646-47.286-58.646l-10.585-0.359s0.71799 12.558 2.512 18.837 21.543 29.308 26.745 35.407c5.2029 6.1 28.807 32.577 28.807 32.577l-0.193-27.816z" fill="url(#cw)"/>
  <path d="m347.1 484.05c-22.44-23.448-41.453-58.436-41.453-58.436l-10.85-0.366s-0.40601 12.823 0.867 19.234c1.272 6.412 19.712 31.107 24.506 37.335 4.793 6.229 26.603 32.053 26.603 32.053l0.327-29.82z" fill="url(#cv)"/>
  <path d="m347.6 456.2c-19.174-21.928-32.186-52.856-32.186-52.856l-13.251-2.674s0.53699 12.183 1.517 18.167c1.33 8.119 14.215 31.05 18.267 36.875s24.796 30.075 24.796 30.075l0.857-29.587z" fill="url(#cu)"/>
  <path d="m348.07 424.21c-14.427-23.024-22.323-43.477-22.323-43.477l-11.204-5.002s-2.068 14.657-1.413 20.64c0.65497 5.984 12.541 28.31 15.473 34.122 2.932 5.813 19.447 32.376 19.447 32.376l0.02-38.659z" fill="url(#ct)"/>
  <path d="m348.95 397.15c-8.44-19.064-11.751-35.337-11.751-35.337l-7.411-4.379s-4.339 10.514-4.342 15.336c-0.009033 17.188 7.426 25.841 9.868 30.121 2.46 4.314 13.448 23.925 13.448 23.925l0.188-29.666z" fill="url(#cs)"/>
  <path d="m348.74 536.65c-23.246-21.4-45.721-51.005-45.721-51.005l-11.448-0.124s2.285 16.777 6.092 23.829c5.23 9.689 20.38 18.156 25.566 23.316s25.576 20.862 25.576 20.862l-0.065-16.878z" fill="url(#cr)"/>
  <path d="m348.73 552.58c-23.246-21.4-42.203-33.381-42.203-33.381l-9.1071 0.656s2.406 7.941 5.311 14.077c4.003 8.454 15.449 17.054 21.47 23.316 5.748 5.978 25.069 23.996 25.069 23.996l-0.54-28.664z" fill="url(#cq)"/>
  <path d="m349.16 578.44c-23.247-21.4-39.316-34.668-39.316-34.668l-5.401-0.319s2.601 11.061 5.506 17.197c4.003 8.454 13.694 16.079 19.714 22.341 5.748 5.977 20.025 17.126 20.025 17.126l-0.528-21.677z" fill="url(#cp)"/>
  <path d="m350.1 599.47c-23.246-21.4-29.72-25.853-29.72-25.853l-5.011-1.2941s2.496 7.406 5.506 13.491c2.638 5.333 7.459 9.671 14.058 15.319 6.528 5.588 15.578 11.548 15.578 11.548l-0.411-13.211z" fill="url(#co)"/>
  <path d="m351.44 644.81l-1.5432-33.244-26.154-20.589s10.533 16.579 13.848 23.796c3.3159 7.2169 11.118 28.672 11.118 28.672s-0.19501 2.7307 2.7307 1.3654z" fill="url(#cn)"/>
  <path d="m346.42 399.75s-2.4344-10.622-5.1288-18.65c-9.5575-28.477 0-38.62 0-38.62l4.8762 2.1455s-0.58514-3.3159 0.39014-5.2664c0.97522-1.9505 5.4614-6.4366 7.4119-11.898s7.2169-19.7 9.3624-19.7 0.39008 13.263 0.58514 17.945c0.19507 4.6812 1.9505 8.9723 1.5604 10.533-0.39008 1.5604-1.5604 3.5109-1.5604 3.5109l2.5356-0.5851s0.97522 3.7059 0.19507 5.6564c-0.78021 1.9505-0.97528 4.2911-0.97528 4.2911s1.5604 0.58518 2.9258-0.19504c1.3654-0.78021 2.9257-1.7555 2.9257-1.7555s0 5.4614 0.39014 8.7772c0.39008 3.3159-0.39014 10.338-0.39014 10.338s-3.7059 8.9723-7.9971 16.189c-4.2911 7.2169-12.231 18.065-12.231 18.065s-1.3654 2.9258-4.8763-0.78021z" fill="url(#cm)"/>
  <path d="m347.97 400.38c11.41-10.783 23.034-34.588 23.034-34.588 3.505 0.629 6.661-1.189 9.754-3.442 0 0 3.817 8.356 2.936 21.117-1.144 16.562-8.657 24.052-12.211 27.465-4.492 4.314-23.793 14.896-23.793 14.896l0.28-25.448z" fill="url(#cl)"/>
  <path d="m347.53 426.09c15.489-22.599 33.417-32.384 33.417-32.384l14.173-2.502s-0.010986 11.78-1.243 17.672c-1.905 9.108-14.67 22.099-22.035 32.403-7.202 10.075-24.783 19.629-24.783 19.629l0.471-34.818z" fill="url(#ck)"/>
  <path d="m347.16 460.89c25.09-17.669 39.973-41.507 39.973-41.507 3.583 0.88501 8.651 0.92401 12.651-0.27499 0 0 1.33 7.203-0.893 15.043-3.046 10.741-21.101 31.239-25.153 37.064-4.052 5.824-27.721 27.743-27.721 27.743l1.143-38.068z" fill="url(#cj)"/>
  <path d="m346.3 498.58c22.44-23.447 46.14-53.279 46.14-53.279 2.736 0.37 5.834 0.55899 10.225 0.10199 0 0-0.54401 13.512-3.679 19.703-3.518 6.95-16.219 22.036-26.168 33.264-5.213 5.882-25.822 28.191-25.822 28.191l-0.696-27.981z" fill="url(#ci)"/>
  <path d="m347.48 524.8c22.298-24.994 44.294-50.197 44.294-50.197 3.269 0.39801 6.905 0.063995 10.585-0.35901 0 0 0.143 9.739-4.699 17.274-3.621 5.635-19.319 20.463-24.859 28.153-7.405 10.279-24.945 24.452-24.945 24.452l-0.376-19.323z" fill="url(#ch)"/>
  <path d="m347.99 542.84c23.715-20.463 42.941-45.157 42.941-45.157l9.104 0.501s-1.993 14.416-6.873 22.892c-2.3831 4.14-17.411 19.562-23.691 26.597-4.871 5.458-21.189 19.701-21.189 19.701l-0.2921-24.534z" fill="url(#cg)"/>
  <path d="m348.88 566.17c21.84-18.275 37.827-37.599 37.827-37.599l7.858 0.187s-2.98 9.948-5.468 16.264c-6.347 16.11-13.875 19.321-21.146 27.927-5.351 6.334-18.819 15.087-18.819 15.087l-0.252-21.866z" fill="url(#cf)"/>
  <path d="m349.19 587.66c16.371-12.651 26.66-24.826 26.66-24.826l6.339-0.163s-2.758 11.531-5.663 17.667c-4.003 8.453-8.538 11.704-14.558 17.966-5.748 5.977-12.057 9.47-12.057 9.47l-0.721-20.114z" fill="url(#ce)"/>
  <path d="m349.71 645.02l-0.9007-37.664c8.0367-5.0004 15.974-11.899 22.784-19.351 0 0-7.8379 23.508-11.036 34.264-2.1569 7.2543-6.2744 20.704-6.2744 20.704s-1.6473 3.4117-4.5731 2.0463z" fill="url(#cd)"/>
  <path d="m350.08 628c-1.6855-5.7308-3.0339-12.81-5.3937-15.507-2.3597-2.6968-5.3936-5.3937-3.7081-6.0679 1.6856-0.67419 6.405 3.0339 6.405 3.0339s2.0226-5.7308 1.0114-8.4276c-1.0114-2.6968-5.3937-8.0905-7.4163-9.4389s-6.7421-5.0566-5.0566-6.0679c1.6856-1.0113 6.7421 2.6968 8.4276 1.3484 1.6856-1.3484 3.7082-4.7195 3.371-8.4276-0.3371-3.7081-1.3484-5.7308-3.371-6.405-2.0226-0.67419-8.0904-2.6968-10.45-5.7308-2.3597-3.0339-4.0453-4.3824-2.6968-5.0566 1.3484-0.67419 5.3937 3.3711 7.4163 4.0453 2.0226 0.67419 6.0679 2.0226 7.4163 0.3371 1.3484-1.6856 2.0226-14.158 0-15.844-2.0226-1.6855-10.113-5.0565-10.45-7.0792-0.3371-2.0226 3.7082 2.6968 6.405 1.3484s4.3824-6.7421 3.7082-8.7647c-0.67419-2.0226-5.7308-5.7308-7.4163-7.0792s-2.6968-4.3823-2.6968-4.3823 8.4276 4.7194 9.1018 3.371c0.67426-1.3484 1.0114-10.787 1.0114-13.821 0-3.0339-4.7195-9.4389-7.4163-11.462-2.6968-2.0226-10.787-7.4163-9.4389-9.1018 1.3484-1.6855 7.7534 4.3824 8.7647 3.7081 1.0113-0.67419-3.371-2.6968-1.6856-4.0452 1.6856-1.3484 6.0679 2.6968 7.0792 1.0113s3.0339-6.7421 1.6855-10.113c-1.3484-3.3711-13.147-14.833-11.799-16.855 1.3484-2.0226 6.0679 6.405 8.0905 6.0679s4.0453-4.7194 4.3824-6.0679c0.3371-1.3484-0.3371-11.799-1.3484-13.821-1.0113-2.0226-10.45-13.147-9.1018-14.158 1.3484-1.0113 5.3937 6.0679 7.7534 7.0792s5.0565-0.67422 5.0565-3.0339 0-16.518-1.0113-18.878c-1.0113-2.3597-3.7081-6.405-5.7308-8.4276-2.0226-2.0226 5.0566 1.3484 5.7308-1.3484 0.67419-2.6968 0-9.4389 0-12.473 0-3.034 2.3597-7.7534 2.0226-10.45-0.3371-2.6968-5.3937-10.787-6.7421-13.147-1.3484-2.3597 3.7082 3.371 5.7308 4.7194s3.3711-2.0226 2.3597-5.3937c-1.0113-3.371-6.405-10.113-7.0792-12.81-0.67419-2.6968-1.3484-7.7534-1.0114-10.45 0.33716-2.6968 3.3711 8.7647 5.3937 8.4276s4.0453-6.405 2.6968-9.776c-1.3484-3.371-4.0452-6.0679-2.3597-7.0792 1.6856-1.0113 3.3711 6.0679 5.0566 6.0679 1.6856 0 1.6856-7.4163 1.6856-10.45 0-3.0339 7.0792-23.26 7.0792-23.26s-1.6855 12.473-0.67419 13.147c1.0113 0.67422-4.0452 4.7195-3.371 6.405 0.67419 1.6855 4.7194 1.3484 5.0566 2.6968 0.3371 1.3484-4.7195 2.6968-4.3824 4.3824 0.3371 1.6855 5.3937 2.3597 5.3937 4.7194s-6.7421 2.3597-8.0905 5.0566c-1.3484 2.6968-3.371 7.7534-2.6968 9.776 0.67419 2.0226 6.405-3.371 7.0792-1.0113 0.67419 2.3597-5.7308 5.3937-6.0679 7.4163-0.33716 2.0226 3.371 8.4276 2.3597 10.113-1.0113 1.6855-4.3823 4.7195-4.7194 7.0792s5.0565 0.67422 5.7308 2.3597c0.67419 1.6855-5.7308 5.0566-5.7308 7.4163s-0.3371 8.7647 1.6855 9.4389c2.0226 0.67422 7.7534-4.3824 10.113-5.0566 2.3597-0.67422 9.1018-7.0792 11.462-5.3937 2.3597 1.6855-2.0226 11.799-0.67426 12.136 1.3484 0.33713 4.7195 3.3711 2.3597 5.3937-2.3597 2.0226-9.1018 8.4276-10.45 7.0792-1.3484-1.3484-0.3371-10.113 2.3597-9.4389 2.6968 0.67419 4.7195-0.33713 3.3711-2.3597s-6.0679-5.7308-9.439-3.0339c-3.371 2.6968-9.4389 6.7421-9.1018 9.4389s3.371 5.3937 3.371 7.7534-3.7081 7.0792-3.7081 8.4276-1.0113 10.787-1.0113 12.473c0 1.6855-2.0226 8.4276 0 8.0905s7.0792-4.3824 7.7534-6.7421c0.67426-2.3597 0.67426-6.405 2.3597-7.7534 1.6856-1.3484 5.7308-4.7194 7.0792-6.0679 1.3484-1.3484 4.0452-5.3936 5.3936-4.7194 1.3484 0.67422-2.6968 5.3937-4.3823 8.0905-1.6856 2.6968-8.7647 16.181-12.136 17.866-3.371 1.6855-7.7534 2.0226-8.0905 4.7194s-2.6968 8.0905 0.67419 6.7421c3.3711-1.3484 11.462-9.1018 12.81-10.45 1.3484-1.3484 4.3823-8.0905 6.0679-7.0792 1.6855 1.0113-2.0226 6.7421-4.0453 8.4276-2.0226 1.6855-13.484 10.113-14.158 12.81-0.67426 2.6968 0 5.7308 1.6855 8.7647 1.6856 3.0339 1.0114 6.405 0.3371 8.0905-0.67419 1.6855-2.6968 5.7308-0.67419 6.405 2.0226 0.67422 7.7534-6.7421 9.776-8.7647s2.6968-5.7308 2.6968-7.0792 7.4163-11.124 9.4389-9.1018c2.0226 2.0226-2.3597 5.0566-3.7081 8.0905-1.3484 3.034-5.0565 10.113-7.7534 13.147-2.6968 3.034-11.124 9.1018-12.473 9.4389-1.3484 0.3371-3.0339 8.7647 0.3371 9.776 3.3711 1.0113 9.7761-1.6856 11.462-2.3597 1.6856-0.67422 7.0792-11.124 9.1019-9.776 2.0226 1.3484-0.33716 3.0339-3.034 7.0792s-8.0904 11.124-10.113 12.81c-2.0226 1.6855-3.7081 2.6968-4.3823 5.3936-0.67426 2.6968-3.034 11.124 0 12.473 3.0339 1.3484 9.1018-4.3824 10.45-6.0679 1.3484-1.6856 7.4163-10.787 8.4276-8.7647 1.0113 2.0226-6.405 11.799-9.776 14.496-3.3711 2.6968-10.113 7.4163-10.45 9.776-0.3371 2.3597-2.0226 8.4276 0.3371 10.113 2.3597 1.6856 7.7534 1.0114 10.113 0.67419 2.3597-0.3371 7.0792-12.81 9.4389-11.124 2.3597 1.6855-6.7421 14.496-10.113 17.529-3.371 3.0339-9.1018 4.3823-8.7647 6.405 0.33716 2.0226-1.3484 10.787 2.0226 11.462 3.371 0.67426 8.4276-5.0565 10.45-6.7421 2.0226-1.6855 2.3597-4.0452 3.0339-5.3937 0.67419-1.3484 1.6855-0.67419 3.7081-2.3597s5.0566-10.787 6.7421-9.1018c1.6856 1.6856-3.7081 9.1018-5.0566 11.124-1.3484 2.0226-8.7646 9.776-9.776 12.136-1.0113 2.3597-2.6968 7.0792-4.0452 9.1018s0.67419 13.147-1.3484 15.844c-2.0226 2.6968-4.0452 9.1018-4.0452 12.136 0 3.0339 0 13.147-5.0566 14.158z" fill="url(#cc)" fill-opacity=".5"/>
  <g fill="none" stroke-linecap="round" stroke-opacity=".2" stroke-width="2">
   <path d="m351.27 644c-10.169-143.89-1.5254-253.72-1.5254-253.72" stroke="#000"/>
   <path d="m352.82 643.89c-10.169-143.89-1.5254-253.72-1.5254-253.72" stroke="#fff"/>
  </g>
  <path d="m384.1 382.81c-0.26996 3.806-0.85596 7.162-1.688 10.09l13.164-2.32s-0.02301 11.824-1.26 17.748c-0.67499 3.243-2.7 6.959-5.378 10.855 3.465 0.586 7.808 0.496 11.319-0.56302 0 0 1.327 7.252-0.90002 15.112-0.87799 3.153-3.038 7.117-5.761 11.306 2.565 0.31601 5.513 0.42801 9.564 0.02301 0 0-0.56299 13.581-3.713 19.797-1.216 2.41-3.511 5.765-6.414 9.617 3.061 0.26999 6.414-0.04599 9.812-0.42801 0 0 0.15704 9.774-4.726 17.364-0.96802 1.509-2.835 3.716-5.153 6.284l7.538 0.405s-1.98 14.482-6.886 22.995c-0.83197 1.441-3.173 4.234-6.143 7.567l7.539 0.181s-2.993 9.999-5.491 16.351c-3.443 8.783-7.269 13.738-11.184 17.837l4.253-0.113s-2.768 11.599-5.693 17.748c-1.598 3.378-3.286 5.923-5.109 8.175-1.08 3.311-7.966 24.054-10.936 33.986-2.16 7.297-6.301 20.81-6.301 20.81s-1.485 3.108-4.163 2.23c-1.553 0.067993-1.418-1.757-1.418-1.757s-7.831-21.576-11.161-28.828c-3.331-7.252-13.93-23.918-13.93-23.918l1.733 1.374c-1.913-2.117-3.465-4.257-4.613-6.554-3.015-6.126-5.513-13.559-5.513-13.559l4.523 1.172c-4.006-4.009-7.809-8.334-9.969-12.905-2.925-6.172-5.536-17.297-5.536-17.297l5.424 0.337s0.45001 0.36096 1.282 1.059c-3.51-3.536-6.661-7.252-8.416-10.968-2.925-6.149-5.333-14.144-5.333-14.144l8.821-0.631c-3.533-3.085-6.706-6.418-8.574-9.909-3.825-7.095-6.12-23.964-6.12-23.964l10.036 0.113c-4.253-5.586-7.719-10.631-8.416-13.085-1.8-6.329-2.52-18.941-2.52-18.941l9.923 0.337c-2.632-4.211-4.523-7.747-4.905-9.662-1.283-6.463-0.87799-19.346-0.87799-19.346l10.892 0.36s0.29199 0.54102 0.85504 1.554c-1.463-3.378-2.498-6.328-2.8361-8.355-0.98999-6.014-1.53-18.266-1.53-18.266l13.277 2.681c-1.238-2.996-2.093-5.496-2.25-6.982-0.67596-6.014 1.417-20.765 1.417-20.765l11.252 5.044s0.13501 0.383 0.45001 1.127c-0.47302-2.748-0.76502-5.789-0.76502-9.144 0.022034-4.843 4.365-15.405 4.365-15.405l7.426 4.369c-0.94501-13.986 4.141-19.414 4.141-19.414l4.883 2.162s-0.58496-3.333 0.40503-5.293c0.96796-1.959 5.491-6.463 7.449-11.959 1.957-5.473 7.246-19.797 9.406-19.797 2.138 0 0.38202 13.333 0.58502 18.04 0.17999 4.708 1.958 9.009 1.553 10.586-0.383 1.576-1.553 3.536-1.553 3.536l2.543-0.608s0.96704 3.738 0.20203 5.698c-0.78699 1.959-0.98999 4.324-0.98999 4.324s1.575 0.58502 2.948-0.203c1.373-0.78799 2.925-1.779 2.925-1.779s0 5.495 0.40497 8.829c0.31604 2.86-0.20196 8.445-0.35998 9.977 3.286 0.36002 6.301-1.397 9.227-3.536 0 0 3.848 8.401 2.948 21.238z" fill="url(#de)"/>
  <g transform="matrix(.15009 .49944 -.5135 .11078 562.69 364.77)">
   <path d="m446.94 405.77c-23.86-22.963-47.286-58.646-47.286-58.646l-10.584-0.359s0.71698 12.558 2.511 18.837 21.543 29.307 26.746 35.407c5.202 6.099 28.806 32.577 28.806 32.577l-0.193-27.816z" fill="url(#bl)"/>
   <path d="m445.51 377.05c-22.441-23.447-41.453-58.435-41.453-58.435l-10.85-0.366s-0.40698 12.823 0.866 19.234c1.272 6.411 19.713 31.107 24.506 37.335s26.603 32.053 26.603 32.053l0.328-29.821z" fill="url(#bm)"/>
   <path d="m446 349.2c-19.173-21.928-32.185-52.856-32.185-52.856l-13.252-2.675s0.53799 12.184 1.518 18.168c1.329 8.119 14.215 31.05 18.267 36.875s24.796 30.075 24.796 30.075l0.856-29.587z" fill="url(#bn)"/>
   <path d="m446.47 317.21c-14.428-23.024-22.324-43.478-22.324-43.478l-11.204-5.001s-2.068 14.657-1.413 20.64 12.541 28.31 15.473 34.122c2.932 5.813 19.447 32.376 19.447 32.376l0.021-38.659z" fill="url(#bo)"/>
   <path d="m447.35 290.15c-8.441-19.064-11.752-35.337-11.752-35.337l-7.411-4.379s-4.339 10.514-4.341 15.336c-0.009003 17.188 7.426 25.841 9.867 30.121 2.461 4.313 13.449 23.925 13.449 23.925l0.188-29.666z" fill="url(#bp)"/>
   <path d="m447.14 429.65c-23.246-21.4-45.72-51.005-45.72-51.005l-11.448-0.124s2.285 16.777 6.091 23.829c5.231 9.689 20.38 18.156 25.566 23.316s25.577 20.862 25.577 20.862l-0.066-16.878z" fill="url(#bq)"/>
   <path d="m447.13 445.58c-23.246-21.4-42.202-33.381-42.202-33.381l-9.108 0.656s2.406 7.941 5.312 14.077c4.003 8.454 15.449 17.054 21.469 23.316 5.748 5.978 25.069 23.996 25.069 23.996l-0.54-28.664z" fill="url(#br)"/>
   <path d="m447.56 471.44c-23.246-21.4-39.315-34.668-39.315-34.668l-5.402-0.32s2.601 11.062 5.507 17.198c4.002 8.454 13.693 16.079 19.714 22.341 5.747 5.977 20.024 17.126 20.024 17.126l-0.528-21.677z" fill="url(#bs)"/>
   <path d="m448.5 492.47c-23.246-21.4-29.72-25.853-29.72-25.853l-5.011-1.294s2.497 7.406 5.506 13.491c2.638 5.333 7.459 9.67 14.058 15.319 6.528 5.588 15.578 11.548 15.578 11.548l-0.411-13.211z" fill="url(#be)"/>
   <path d="m449.84 537.81l-1.5432-33.244-26.154-20.589s10.533 16.579 13.848 23.796c3.3159 7.2169 11.118 28.672 11.118 28.672s-0.19504 2.7307 2.7307 1.3654z" fill="url(#bt)"/>
   <path d="m444.83 292.75s-2.4344-10.622-5.1288-18.65c-9.5575-28.477 0-38.62 0-38.62l4.8763 2.1456s-0.58514-3.3159 0.39011-5.2664 5.4614-6.4366 7.4119-11.898 7.2169-19.7 9.3624-19.7 0.39011 13.263 0.58514 17.945c0.19504 4.6812 1.9505 8.9723 1.5604 10.533-0.39011 1.5604-1.5604 3.5109-1.5604 3.5109l2.5356-0.5851s0.97525 3.7059 0.19507 5.6564c-0.78021 1.9505-0.97525 4.2911-0.97525 4.2911s1.5604 0.58514 2.9258-0.19504c1.3654-0.78021 2.9258-1.7555 2.9258-1.7555s0 5.4614 0.39011 8.7772c0.39011 3.3159-0.39011 10.338-0.39011 10.338s-3.706 8.9723-7.9971 16.189c-4.2911 7.2168-12.231 18.065-12.231 18.065s-1.3654 2.9258-4.8762-0.78021z" fill="url(#bu)"/>
   <path d="m446.38 293.38c11.409-10.783 23.033-34.589 23.033-34.589 3.505 0.62997 6.661-1.188 9.754-3.441 0 0 3.817 8.356 2.936 21.117-1.144 16.562-8.657 24.052-12.211 27.465-4.492 4.313-23.793 14.896-23.793 14.896l0.281-25.448z" fill="url(#bv)"/>
   <path d="m445.93 319.08c15.489-22.599 33.416-32.384 33.416-32.384l14.173-2.502s-0.011017 11.78-1.243 17.672c-1.905 9.108-14.67 22.099-22.035 32.403-7.202 10.075-24.783 19.629-24.783 19.629l0.472-34.818z" fill="url(#bw)"/>
   <path d="m445.56 353.88c25.09-17.668 39.974-41.506 39.974-41.506 3.583 0.884 8.651 0.92401 12.65-0.27499 0 0 1.331 7.203-0.893 15.043-3.046 10.741-21.101 31.239-25.153 37.063-4.052 5.825-27.72 27.744-27.72 27.744l1.142-38.069z" fill="url(#bx)"/>
   <path d="m444.7 391.58c22.44-23.447 46.14-53.279 46.14-53.279 2.737 0.37 5.835 0.55899 10.225 0.10199 0 0-0.543 13.512-3.678 19.703-3.519 6.95-16.22 22.036-26.169 33.264-5.212 5.882-25.822 28.191-25.822 28.191l-0.696-27.981z" fill="url(#by)"/>
   <path d="m445.88 417.79c22.297-24.994 44.294-50.197 44.294-50.197 3.269 0.39798 6.904 0.063995 10.584-0.35901 0 0 0.14398 9.739-4.699 17.274-3.621 5.635-19.319 20.463-24.859 28.152-7.405 10.28-24.944 24.453-24.944 24.453l-0.376-19.323z" fill="url(#bf)"/>
   <path d="m446.4 435.83c23.715-20.463 42.941-45.157 42.941-45.157l9.105 0.501s-1.994 14.416-6.873 22.892c-2.383 4.14-17.411 19.562-23.691 26.597-4.872 5.458-21.19 19.701-21.19 19.701l-0.292-24.534z" fill="url(#bg)"/>
   <path d="m447.29 459.17c21.84-18.275 37.828-37.599 37.828-37.599l7.857 0.187s-2.979 9.948-5.468 16.264c-6.346 16.11-13.874 19.321-21.145 27.927-5.352 6.334-18.819 15.087-18.819 15.087l-0.253-21.866z" fill="url(#bh)"/>
   <path d="m447.59 480.66c16.372-12.65 26.66-24.825 26.66-24.825l6.339-0.163s-2.757 11.531-5.663 17.667c-4.003 8.453-8.537 11.704-14.558 17.965-5.748 5.978-12.056 9.471-12.056 9.471l-0.722-20.115z" fill="url(#bi)"/>
   <path d="m448.11 538.02l-0.9-37.664c8.037-5 15.973-11.898 22.784-19.351 0 0-7.838 23.508-11.036 34.265-2.157 7.254-6.274 20.704-6.274 20.704s-1.648 3.411-4.573 2.046h-0.001007z" fill="url(#bj)"/>
   <path d="m448.48 521c-1.6855-5.7308-3.0339-12.81-5.3937-15.507-2.3597-2.6968-5.3936-5.3937-3.7081-6.0679 1.6855-0.67426 6.405 3.0339 6.405 3.0339s2.0226-5.7308 1.0113-8.4276-5.3936-8.0905-7.4163-9.4389c-2.0226-1.3484-6.7421-5.0566-5.0566-6.0679s6.7421 2.6968 8.4276 1.3484 3.7082-4.7195 3.3711-8.4276c-0.33713-3.7081-1.3484-5.7308-3.3711-6.405-2.0226-0.67419-8.0905-2.6968-10.45-5.7307-2.3597-3.0339-4.0453-4.3824-2.6968-5.0566 1.3484-0.67419 5.3937 3.3711 7.4163 4.0453 2.0226 0.67422 6.0679 2.0226 7.4163 0.3371s2.0226-14.158 0-15.844c-2.0226-1.6856-10.113-5.0566-10.45-7.0792-0.3371-2.0226 3.7082 2.6968 6.405 1.3484s4.3824-6.7421 3.7081-8.7647c-0.67419-2.0226-5.7308-5.7308-7.4163-7.0792s-2.6968-4.3824-2.6968-4.3824 8.4276 4.7194 9.1018 3.371c0.67419-1.3484 1.0113-10.787 1.0113-13.821 0-3.0339-4.7194-9.4389-7.4163-11.462-2.6968-2.0226-10.787-7.4163-9.4389-9.1018 1.3484-1.6856 7.7534 4.3824 8.7647 3.7081 1.0113-0.67419-3.371-2.6968-1.6855-4.0453 1.6855-1.3484 6.0679 2.6968 7.0792 1.0113s3.0339-6.7421 1.6855-10.113c-1.3484-3.371-13.147-14.833-11.799-16.855 1.3484-2.0226 6.0679 6.405 8.0905 6.0679s4.0453-4.7194 4.3824-6.0679c0.3371-1.3484-0.3371-11.799-1.3484-13.821-1.0113-2.0226-10.45-13.147-9.1018-14.158 1.3484-1.0113 5.3937 6.0679 7.7534 7.0792s5.0566-0.67422 5.0566-3.0339 0-16.518-1.0113-18.878c-1.0113-2.3597-3.7081-6.405-5.7308-8.4276-2.0226-2.0226 5.0566 1.3484 5.7308-1.3484 0.67419-2.6968 0-9.4389 0-12.473 0-3.0339 2.3597-7.7534 2.0226-10.45-0.3371-2.6968-5.3936-10.787-6.7421-13.147-1.3484-2.3597 3.7081 3.3711 5.7308 4.7195 2.0226 1.3484 3.371-2.0226 2.3597-5.3937-1.0113-3.371-6.405-10.113-7.0792-12.81-0.67422-2.6968-1.3484-7.7534-1.0113-10.45 0.3371-2.6968 3.371 8.7647 5.3936 8.4276 2.0226-0.33713 4.0453-6.405 2.6968-9.776-1.3484-3.371-4.0453-6.0679-2.3597-7.0792 1.6855-1.0113 3.371 6.0679 5.0566 6.0679 1.6855 0 1.6855-7.4163 1.6855-10.45 0-3.0339 7.0792-23.26 7.0792-23.26s-1.6855 12.473-0.67419 13.147c1.0113 0.67419-4.0453 4.7194-3.3711 6.405 0.67422 1.6855 4.7194 1.3484 5.0566 2.6968 0.3371 1.3484-4.7194 2.6968-4.3824 4.3824 0.3371 1.6855 5.3936 2.3597 5.3936 4.7194s-6.7421 2.3597-8.0905 5.0566c-1.3484 2.6968-3.371 7.7534-2.6968 9.776 0.67422 2.0226 6.405-3.371 7.0792-1.0113 0.67419 2.3597-5.7308 5.3937-6.0679 7.4163s3.371 8.4276 2.3597 10.113c-1.0113 1.6856-4.3824 4.7195-4.7194 7.0792-0.3371 2.3597 5.0566 0.67422 5.7308 2.3597 0.67422 1.6855-5.7308 5.0566-5.7308 7.4163s-0.3371 8.7647 1.6855 9.4389c2.0226 0.67419 7.7534-4.3824 10.113-5.0566 2.3597-0.67419 9.1018-7.0792 11.462-5.3937 2.3597 1.6855-2.0226 11.799-0.67419 12.136 1.3484 0.3371 4.7194 3.371 2.3597 5.3936s-9.1018 8.4276-10.45 7.0792c-1.3484-1.3484-0.3371-10.113 2.3597-9.4389 2.6968 0.67419 4.7194-0.33713 3.371-2.3597s-6.0679-5.7308-9.4389-3.0339c-3.371 2.6968-9.4389 6.7421-9.1018 9.4389 0.33713 2.6968 3.3711 5.3936 3.3711 7.7534 0 2.3597-3.7082 7.0792-3.7082 8.4276s-1.0113 10.787-1.0113 12.473c0 1.6855-2.0226 8.4276 0 8.0905s7.0792-4.3823 7.7534-6.7421c0.67419-2.3597 0.67419-6.405 2.3597-7.7534s5.7308-4.7195 7.0792-6.0679 4.0453-5.3937 5.3937-4.7195c1.3484 0.67422-2.6968 5.3937-4.3824 8.0905-1.6855 2.6969-8.7647 16.181-12.136 17.866-3.3711 1.6855-7.7534 2.0226-8.0905 4.7194s-2.6968 8.0905 0.67422 6.7421 11.462-9.1018 12.81-10.45c1.3484-1.3484 4.3824-8.0905 6.0679-7.0792s-2.0226 6.7421-4.0452 8.4276-13.484 10.113-14.158 12.81c-0.67419 2.6968 0 5.7308 1.6855 8.7647s1.0113 6.405 0.3371 8.0905c-0.67419 1.6855-2.6968 5.7308-0.67419 6.405 2.0226 0.67422 7.7534-6.7421 9.776-8.7647s2.6968-5.7308 2.6968-7.0792 7.4163-11.124 9.4389-9.1018c2.0226 2.0226-2.3597 5.0566-3.7082 8.0905-1.3484 3.0339-5.0566 10.113-7.7534 13.147-2.6968 3.0339-11.124 9.1018-12.473 9.4389-1.3484 0.3371-3.034 8.7647 0.3371 9.776 3.371 1.0113 9.776-1.6855 11.462-2.3597 1.6856-0.67419 7.0792-11.124 9.1018-9.776 2.0226 1.3484-0.33713 3.034-3.0339 7.0792-2.6968 4.0453-8.0905 11.124-10.113 12.81-2.0226 1.6855-3.7082 2.6968-4.3824 5.3937-0.67422 2.6968-3.0339 11.124 0 12.473 3.0339 1.3484 9.1018-4.3824 10.45-6.0679 1.3484-1.6855 7.4163-10.787 8.4276-8.7647 1.0113 2.0226-6.405 11.799-9.776 14.496-3.371 2.6968-10.113 7.4163-10.45 9.776-0.3371 2.3597-2.0226 8.4276 0.3371 10.113 2.3597 1.6856 7.7534 1.0113 10.113 0.67422 2.3597-0.3371 7.0792-12.81 9.4389-11.124 2.3597 1.6855-6.7421 14.496-10.113 17.529-3.371 3.034-9.1018 4.3824-8.7647 6.405s-1.3484 10.787 2.0226 11.462c3.371 0.67419 8.4276-5.0566 10.45-6.7421 2.0226-1.6856 2.3597-4.0453 3.0339-5.3937 0.67422-1.3484 1.6855-0.67419 3.7082-2.3597 2.0226-1.6855 5.0566-10.787 6.7421-9.1018 1.6855 1.6855-3.7081 9.1018-5.0566 11.124-1.3484 2.0226-8.7647 9.776-9.776 12.136-1.0113 2.3597-2.6968 7.0792-4.0453 9.1018-1.3484 2.0226 0.67422 13.147-1.3484 15.844-2.0226 2.6968-4.0453 9.1018-4.0453 12.136 0 3.0339 0 13.147-5.0566 14.158z" fill="url(#bk)" fill-opacity=".5"/>
   <g fill="none" stroke-linecap="round" stroke-opacity=".2" stroke-width="2">
    <path d="m449.67 537c-10.169-143.89-1.5254-253.72-1.5254-253.72" stroke="#000"/>
    <path d="m451.22 536.89c-10.169-143.89-1.5254-253.72-1.5254-253.72" stroke="#fff"/>
   </g>
   <path d="m482.5 275.81c-0.26999 3.806-0.85498 7.162-1.688 10.09l13.164-2.32s-0.022003 11.824-1.26 17.747c-0.67499 3.244-2.7 6.96-5.378 10.856 3.466 0.586 7.809 0.496 11.319-0.56302 0 0 1.328 7.252-0.89999 15.112-0.87802 3.153-3.038 7.117-5.761 11.306 2.566 0.31601 5.513 0.42801 9.564 0.02301 0 0-0.56299 13.581-3.713 19.797-1.215 2.409-3.51 5.765-6.413 9.616 3.06 0.271 6.413-0.044983 9.811-0.427 0 0 0.15701 9.774-4.726 17.364-0.96701 1.509-2.835 3.716-5.153 6.284l7.539 0.405s-1.981 14.482-6.886 22.995c-0.83301 1.441-3.173 4.234-6.144 7.567l7.539 0.181s-2.993 9.999-5.491 16.351c-3.443 8.783-7.268 13.738-11.184 17.837l4.253-0.113s-2.768 11.599-5.693 17.748c-1.598 3.378-3.285 5.923-5.108 8.175-1.08 3.311-7.966 24.054-10.937 33.986-2.16 7.297-6.3 20.81-6.3 20.81s-1.486 3.108-4.164 2.23c-1.552 0.067017-1.417-1.757-1.417-1.757s-7.831-21.576-11.162-28.828c-3.33-7.252-13.929-23.918-13.929-23.918l1.733 1.373c-1.913-2.117-3.466-4.256-4.613-6.553-3.016-6.126-5.514-13.559-5.514-13.559l4.523 1.171c-4.005-4.008-7.808-8.333-9.968-12.905-2.926-6.171-5.536-17.296-5.536-17.296l5.423 0.337s0.44998 0.36099 1.283 1.059c-3.511-3.536-6.661-7.252-8.416-10.968-2.926-6.149-5.334-14.144-5.334-14.144l8.822-0.631c-3.533-3.085-6.706-6.419-8.574-9.909-3.826-7.095-6.121-23.964-6.121-23.964l10.036 0.113c-4.253-5.586-7.718-10.631-8.416-13.086-1.8-6.328-2.52-18.941-2.52-18.941l9.924 0.338c-2.633-4.211-4.523-7.747-4.906-9.662-1.283-6.463-0.87701-19.346-0.87701-19.346l10.891 0.36s0.293 0.54102 0.85501 1.554c-1.463-3.378-2.498-6.328-2.835-8.355-0.98999-6.014-1.53-18.266-1.53-18.266l13.276 2.68c-1.237-2.995-2.092-5.495-2.25-6.981-0.67499-6.014 1.418-20.766 1.418-20.766l11.251 5.045s0.13501 0.383 0.45001 1.126c-0.47202-2.747-0.76502-5.788-0.76502-9.144 0.02301-4.842 4.366-15.405 4.366-15.405l7.426 4.37c-0.94498-13.986 4.14-19.414 4.14-19.414l4.883 2.162s-0.58499-3.333 0.405-5.293c0.96802-1.959 5.491-6.464 7.449-11.959 1.958-5.473 7.246-19.797 9.406-19.797 2.138 0 0.383 13.333 0.58499 18.04 0.17999 4.707 1.958 9.009 1.553 10.586-0.383 1.576-1.553 3.536-1.553 3.536l2.543-0.608s0.96799 3.738 0.203 5.698c-0.78799 1.959-0.98999 4.324-0.98999 4.324s1.575 0.58499 2.947-0.203c1.373-0.78799 2.926-1.779 2.926-1.779s0 5.495 0.405 8.828c0.315 2.861-0.203 8.446-0.35998 9.978 3.285 0.36002 6.301-1.397 9.226-3.536 0 0 3.848 8.4 2.948 21.238z" fill="url(#cx)"/>
  </g>
  <g transform="matrix(.5991 .55672 -.55066 .64344 444.21 36.39)">
   <path d="m398.43 469.71c-23.86-22.963-47.286-58.646-47.286-58.646l-10.584-0.359s0.71698 12.558 2.511 18.837 21.543 29.307 26.746 35.407c5.202 6.099 28.806 32.577 28.806 32.577l-0.193-27.816z" fill="url(#bl)"/>
   <path d="m396.99 440.98c-22.441-23.447-41.453-58.435-41.453-58.435l-10.85-0.366s-0.40698 12.823 0.866 19.234c1.272 6.411 19.713 31.107 24.506 37.335s26.603 32.053 26.603 32.053l0.328-29.821z" fill="url(#bm)"/>
   <path d="m397.49 413.13c-19.173-21.928-32.185-52.856-32.185-52.856l-13.252-2.675s0.53799 12.184 1.518 18.168c1.329 8.119 14.215 31.05 18.267 36.875s24.796 30.075 24.796 30.075l0.856-29.587z" fill="url(#bn)"/>
   <path d="m397.96 381.14c-14.428-23.024-22.324-43.478-22.324-43.478l-11.204-5.001s-2.068 14.657-1.413 20.64 12.541 28.31 15.473 34.122c2.932 5.813 19.447 32.376 19.447 32.376l0.021-38.659z" fill="url(#bo)"/>
   <path d="m398.84 354.08c-8.441-19.064-11.752-35.337-11.752-35.337l-7.411-4.379s-4.339 10.514-4.341 15.336c-0.009003 17.188 7.426 25.841 9.867 30.121 2.461 4.313 13.449 23.925 13.449 23.925l0.188-29.666z" fill="url(#bp)"/>
   <path d="m398.63 493.58c-23.246-21.4-45.72-51.005-45.72-51.005l-11.448-0.124s2.285 16.777 6.091 23.829c5.231 9.689 20.38 18.156 25.566 23.316s25.577 20.862 25.577 20.862l-0.066-16.878z" fill="url(#bq)"/>
   <path d="m398.62 509.51c-23.246-21.4-42.202-33.381-42.202-33.381l-9.108 0.656s2.406 7.941 5.312 14.077c4.003 8.454 15.449 17.054 21.469 23.316 5.748 5.978 25.069 23.996 25.069 23.996l-0.54-28.664z" fill="url(#br)"/>
   <path d="m399.05 535.37c-23.246-21.4-39.315-34.668-39.315-34.668l-5.402-0.32s2.601 11.062 5.507 17.198c4.002 8.454 13.693 16.079 19.714 22.341 5.747 5.977 20.024 17.126 20.024 17.126l-0.528-21.677z" fill="url(#bs)"/>
   <path d="m399.99 556.4c-23.246-21.4-29.72-25.853-29.72-25.853l-5.011-1.294s2.497 7.406 5.506 13.491c2.638 5.333 7.459 9.67 14.058 15.319 6.528 5.588 15.578 11.548 15.578 11.548l-0.411-13.211z" fill="url(#be)"/>
   <path d="m401.33 601.74l-1.5432-33.244-26.154-20.589s10.533 16.579 13.848 23.796c3.3159 7.2169 11.118 28.672 11.118 28.672s-0.19504 2.7307 2.7307 1.3654z" fill="url(#bt)"/>
   <path d="m396.32 356.68s-2.4344-10.622-5.1288-18.65c-9.5575-28.477 0-38.62 0-38.62l4.8763 2.1456s-0.58514-3.3159 0.39011-5.2664 5.4614-6.4366 7.4119-11.898 7.2169-19.7 9.3624-19.7 0.39011 13.263 0.58514 17.945c0.19504 4.6812 1.9505 8.9723 1.5604 10.533-0.39011 1.5604-1.5604 3.5109-1.5604 3.5109l2.5356-0.5851s0.97525 3.7059 0.19507 5.6564c-0.78021 1.9505-0.97525 4.2911-0.97525 4.2911s1.5604 0.58514 2.9258-0.19504c1.3654-0.78021 2.9258-1.7555 2.9258-1.7555s0 5.4614 0.39011 8.7772c0.39011 3.3159-0.39011 10.338-0.39011 10.338s-3.706 8.9723-7.9971 16.189c-4.2911 7.2168-12.231 18.065-12.231 18.065s-1.3654 2.9258-4.8762-0.78021z" fill="url(#bu)"/>
   <path d="m397.86 357.31c11.409-10.783 23.033-34.589 23.033-34.589 3.505 0.62997 6.661-1.188 9.754-3.441 0 0 3.817 8.356 2.936 21.117-1.144 16.562-8.657 24.052-12.211 27.465-4.492 4.313-23.793 14.896-23.793 14.896l0.281-25.448z" fill="url(#bv)"/>
   <path d="m397.42 383.02c15.489-22.599 33.416-32.384 33.416-32.384l14.173-2.502s-0.011017 11.78-1.243 17.672c-1.905 9.108-14.67 22.099-22.035 32.403-7.202 10.075-24.783 19.629-24.783 19.629l0.472-34.818z" fill="url(#bw)"/>
   <path d="m397.05 417.82c25.09-17.668 39.974-41.506 39.974-41.506 3.583 0.884 8.651 0.92401 12.65-0.27499 0 0 1.331 7.203-0.893 15.043-3.046 10.741-21.101 31.239-25.153 37.063-4.052 5.825-27.72 27.744-27.72 27.744l1.142-38.069z" fill="url(#bx)"/>
   <path d="m396.19 455.51c22.44-23.447 46.14-53.279 46.14-53.279 2.737 0.37 5.835 0.55899 10.225 0.10199 0 0-0.543 13.512-3.678 19.703-3.519 6.95-16.22 22.036-26.169 33.264-5.212 5.882-25.822 28.191-25.822 28.191l-0.696-27.981z" fill="url(#by)"/>
   <path d="m397.37 481.72c22.297-24.994 44.294-50.197 44.294-50.197 3.269 0.39798 6.904 0.063995 10.584-0.35901 0 0 0.14398 9.739-4.699 17.274-3.621 5.635-19.319 20.463-24.859 28.152-7.405 10.28-24.944 24.453-24.944 24.453l-0.376-19.323z" fill="url(#bf)"/>
   <path d="m397.88 499.77c23.715-20.463 42.941-45.157 42.941-45.157l9.105 0.501s-1.994 14.416-6.873 22.892c-2.383 4.14-17.411 19.562-23.691 26.597-4.872 5.458-21.19 19.701-21.19 19.701l-0.292-24.534z" fill="url(#bg)"/>
   <path d="m398.77 523.1c21.84-18.275 37.828-37.599 37.828-37.599l7.857 0.187s-2.979 9.948-5.468 16.264c-6.346 16.11-13.874 19.321-21.145 27.927-5.352 6.334-18.819 15.087-18.819 15.087l-0.253-21.866z" fill="url(#bh)"/>
   <path d="m399.08 544.59c16.372-12.65 26.66-24.825 26.66-24.825l6.339-0.163s-2.757 11.531-5.663 17.667c-4.003 8.453-8.537 11.704-14.558 17.965-5.748 5.978-12.056 9.471-12.056 9.471l-0.722-20.115z" fill="url(#bi)"/>
   <path d="m399.6 601.95l-0.9-37.664c8.037-5 15.973-11.898 22.784-19.351 0 0-7.838 23.508-11.036 34.265-2.157 7.254-6.274 20.704-6.274 20.704s-1.648 3.411-4.573 2.046h-0.001007z" fill="url(#bj)"/>
   <path d="m399.97 584.93c-1.6855-5.7308-3.0339-12.81-5.3937-15.507-2.3597-2.6968-5.3936-5.3937-3.7081-6.0679 1.6855-0.67426 6.405 3.0339 6.405 3.0339s2.0226-5.7308 1.0113-8.4276-5.3936-8.0905-7.4163-9.4389c-2.0226-1.3484-6.7421-5.0566-5.0566-6.0679s6.7421 2.6968 8.4276 1.3484 3.7082-4.7195 3.3711-8.4276c-0.33713-3.7081-1.3484-5.7308-3.3711-6.405-2.0226-0.67419-8.0905-2.6968-10.45-5.7308-2.3597-3.0339-4.0453-4.3823-2.6968-5.0566 1.3484-0.67419 5.3937 3.3711 7.4163 4.0453 2.0226 0.67419 6.0679 2.0226 7.4163 0.3371 1.3484-1.6856 2.0226-14.158 0-15.844-2.0226-1.6856-10.113-5.0566-10.45-7.0792-0.3371-2.0226 3.7082 2.6968 6.405 1.3484s4.3824-6.7421 3.7081-8.7647c-0.67419-2.0226-5.7308-5.7308-7.4163-7.0792s-2.6968-4.3824-2.6968-4.3824 8.4276 4.7194 9.1018 3.371c0.67419-1.3484 1.0113-10.787 1.0113-13.821 0-3.0339-4.7194-9.4389-7.4163-11.462-2.6968-2.0226-10.787-7.4163-9.4389-9.1018 1.3484-1.6856 7.7534 4.3824 8.7647 3.7081 1.0113-0.67419-3.371-2.6968-1.6855-4.0453 1.6855-1.3484 6.0679 2.6968 7.0792 1.0113s3.0339-6.7421 1.6855-10.113c-1.3484-3.371-13.147-14.833-11.799-16.855 1.3484-2.0226 6.0679 6.405 8.0905 6.0679s4.0453-4.7194 4.3824-6.0679c0.3371-1.3484-0.3371-11.799-1.3484-13.821-1.0113-2.0226-10.45-13.147-9.1018-14.158 1.3484-1.0113 5.3937 6.0679 7.7534 7.0792s5.0566-0.67422 5.0566-3.0339 0-16.518-1.0113-18.878c-1.0113-2.3597-3.7081-6.405-5.7308-8.4276-2.0226-2.0226 5.0566 1.3484 5.7308-1.3484 0.67419-2.6968 0-9.4389 0-12.473 0-3.0339 2.3597-7.7534 2.0226-10.45-0.3371-2.6968-5.3936-10.787-6.7421-13.147-1.3484-2.3597 3.7081 3.3711 5.7308 4.7195 2.0226 1.3484 3.371-2.0226 2.3597-5.3937-1.0113-3.371-6.405-10.113-7.0792-12.81-0.67422-2.6968-1.3484-7.7534-1.0113-10.45 0.3371-2.6968 3.371 8.7647 5.3936 8.4276 2.0226-0.33713 4.0453-6.405 2.6968-9.776-1.3484-3.371-4.0453-6.0679-2.3597-7.0792 1.6855-1.0113 3.371 6.0679 5.0566 6.0679 1.6855 0 1.6855-7.4163 1.6855-10.45 0-3.0339 7.0792-23.26 7.0792-23.26s-1.6855 12.473-0.67419 13.147c1.0113 0.67419-4.0453 4.7194-3.3711 6.405 0.67422 1.6855 4.7194 1.3484 5.0566 2.6968 0.3371 1.3484-4.7194 2.6968-4.3824 4.3824 0.3371 1.6855 5.3936 2.3597 5.3936 4.7194s-6.7421 2.3597-8.0905 5.0566c-1.3484 2.6968-3.371 7.7534-2.6968 9.776 0.67422 2.0226 6.405-3.371 7.0792-1.0113 0.67419 2.3597-5.7308 5.3937-6.0679 7.4163s3.371 8.4276 2.3597 10.113c-1.0113 1.6856-4.3824 4.7195-4.7194 7.0792-0.3371 2.3597 5.0566 0.67422 5.7308 2.3597 0.67422 1.6855-5.7308 5.0566-5.7308 7.4163s-0.3371 8.7647 1.6855 9.4389c2.0226 0.67419 7.7534-4.3824 10.113-5.0566 2.3597-0.67419 9.1018-7.0792 11.462-5.3937 2.3597 1.6855-2.0226 11.799-0.67419 12.136 1.3484 0.3371 4.7194 3.371 2.3597 5.3936s-9.1018 8.4276-10.45 7.0792c-1.3484-1.3484-0.3371-10.113 2.3597-9.4389 2.6968 0.67419 4.7194-0.33713 3.371-2.3597s-6.0679-5.7308-9.4389-3.0339c-3.371 2.6968-9.4389 6.7421-9.1018 9.4389 0.33713 2.6968 3.3711 5.3936 3.3711 7.7534 0 2.3597-3.7082 7.0792-3.7082 8.4276s-1.0113 10.787-1.0113 12.473c0 1.6855-2.0226 8.4276 0 8.0905s7.0792-4.3823 7.7534-6.7421c0.67419-2.3597 0.67419-6.405 2.3597-7.7534s5.7308-4.7195 7.0792-6.0679 4.0453-5.3937 5.3937-4.7195c1.3484 0.67422-2.6968 5.3937-4.3824 8.0905-1.6855 2.6969-8.7647 16.181-12.136 17.866-3.3711 1.6855-7.7534 2.0226-8.0905 4.7194s-2.6968 8.0905 0.67422 6.7421 11.462-9.1018 12.81-10.45c1.3484-1.3484 4.3824-8.0905 6.0679-7.0792s-2.0226 6.7421-4.0452 8.4276-13.484 10.113-14.158 12.81c-0.67419 2.6968 0 5.7308 1.6855 8.7647s1.0113 6.405 0.3371 8.0905c-0.67419 1.6855-2.6968 5.7308-0.67419 6.405 2.0226 0.67422 7.7534-6.7421 9.776-8.7647s2.6968-5.7308 2.6968-7.0792 7.4163-11.124 9.4389-9.1018c2.0226 2.0226-2.3597 5.0566-3.7082 8.0905-1.3484 3.0339-5.0566 10.113-7.7534 13.147-2.6968 3.0339-11.124 9.1018-12.473 9.4389-1.3484 0.3371-3.034 8.7647 0.3371 9.776 3.371 1.0113 9.776-1.6855 11.462-2.3597 1.6856-0.67419 7.0792-11.124 9.1018-9.776 2.0226 1.3484-0.33713 3.034-3.0339 7.0792-2.6968 4.0453-8.0905 11.124-10.113 12.81-2.0226 1.6855-3.7082 2.6968-4.3824 5.3937-0.67422 2.6968-3.0339 11.124 0 12.473 3.0339 1.3484 9.1018-4.3824 10.45-6.0679 1.3484-1.6855 7.4163-10.787 8.4276-8.7647 1.0113 2.0226-6.405 11.799-9.776 14.496-3.371 2.6968-10.113 7.4163-10.45 9.776-0.3371 2.3597-2.0226 8.4276 0.3371 10.113 2.3597 1.6855 7.7534 1.0113 10.113 0.67422 2.3597-0.3371 7.0792-12.81 9.4389-11.124 2.3597 1.6855-6.7421 14.496-10.113 17.529-3.371 3.0339-9.1018 4.3823-8.7647 6.405 0.3371 2.0226-1.3484 10.787 2.0226 11.462 3.371 0.67419 8.4276-5.0566 10.45-6.7421 2.0226-1.6856 2.3597-4.0453 3.0339-5.3937 0.67422-1.3484 1.6855-0.67419 3.7082-2.3597 2.0226-1.6855 5.0566-10.787 6.7421-9.1018 1.6855 1.6855-3.7081 9.1018-5.0566 11.124-1.3484 2.0226-8.7647 9.776-9.776 12.136-1.0113 2.3597-2.6968 7.0792-4.0453 9.1018-1.3484 2.0226 0.67422 13.147-1.3484 15.844-2.0226 2.6968-4.0453 9.1018-4.0453 12.136 0 3.0339 0 13.147-5.0566 14.158z" fill="url(#bk)" fill-opacity=".5"/>
   <g fill="none" stroke-linecap="round" stroke-opacity=".2" stroke-width="2">
    <path d="m401.16 600.93c-10.169-143.89-1.5254-253.72-1.5254-253.72" stroke="#000"/>
    <path d="m402.71 600.82c-10.169-143.89-1.5254-253.72-1.5254-253.72" stroke="#fff"/>
   </g>
   <path d="m433.99 339.74c-0.26999 3.806-0.85498 7.162-1.688 10.09l13.164-2.32s-0.022003 11.824-1.26 17.747c-0.67499 3.244-2.7 6.96-5.378 10.856 3.466 0.586 7.809 0.496 11.319-0.56302 0 0 1.328 7.252-0.89999 15.112-0.87802 3.153-3.038 7.117-5.761 11.306 2.566 0.31601 5.513 0.42801 9.564 0.02301 0 0-0.56299 13.581-3.713 19.797-1.215 2.409-3.51 5.765-6.413 9.616 3.06 0.271 6.413-0.044983 9.811-0.427 0 0 0.15701 9.774-4.726 17.364-0.96701 1.509-2.835 3.716-5.153 6.284l7.539 0.405s-1.981 14.482-6.886 22.995c-0.83301 1.441-3.173 4.234-6.144 7.567l7.539 0.181s-2.993 9.999-5.491 16.351c-3.443 8.783-7.268 13.738-11.184 17.837l4.253-0.113s-2.768 11.599-5.693 17.748c-1.598 3.378-3.285 5.923-5.108 8.175-1.08 3.311-7.966 24.054-10.937 33.986-2.16 7.297-6.3 20.81-6.3 20.81s-1.486 3.108-4.164 2.23c-1.552 0.067017-1.417-1.757-1.417-1.757s-7.831-21.576-11.162-28.828c-3.33-7.252-13.929-23.918-13.929-23.918l1.733 1.373c-1.913-2.117-3.466-4.256-4.613-6.553-3.016-6.126-5.514-13.559-5.514-13.559l4.523 1.171c-4.005-4.008-7.808-8.333-9.968-12.905-2.926-6.1709-5.536-17.296-5.536-17.296l5.423 0.337s0.44998 0.36099 1.283 1.059c-3.511-3.536-6.661-7.252-8.416-10.968-2.926-6.149-5.334-14.144-5.334-14.144l8.822-0.631c-3.533-3.085-6.706-6.419-8.574-9.909-3.826-7.095-6.121-23.964-6.121-23.964l10.036 0.113c-4.253-5.586-7.718-10.631-8.416-13.086-1.8-6.328-2.52-18.941-2.52-18.941l9.924 0.338c-2.633-4.211-4.523-7.747-4.906-9.662-1.283-6.463-0.87701-19.346-0.87701-19.346l10.891 0.36s0.293 0.54102 0.85501 1.554c-1.463-3.378-2.498-6.328-2.835-8.355-0.98999-6.014-1.53-18.266-1.53-18.266l13.276 2.68c-1.237-2.995-2.092-5.495-2.25-6.981-0.67499-6.014 1.418-20.766 1.418-20.766l11.251 5.045s0.13501 0.383 0.45001 1.126c-0.47202-2.747-0.76502-5.788-0.76502-9.144 0.02301-4.842 4.366-15.405 4.366-15.405l7.426 4.37c-0.94498-13.986 4.14-19.414 4.14-19.414l4.883 2.162s-0.58499-3.333 0.405-5.293c0.96802-1.959 5.491-6.464 7.449-11.959 1.958-5.473 7.246-19.797 9.406-19.797 2.138 0 0.383 13.333 0.58499 18.04 0.17999 4.707 1.958 9.009 1.553 10.586-0.383 1.576-1.553 3.536-1.553 3.536l2.543-0.608s0.96799 3.738 0.203 5.698c-0.78799 1.959-0.98999 4.324-0.98999 4.324s1.575 0.58499 2.947-0.203c1.373-0.78799 2.926-1.779 2.926-1.779s0 5.495 0.405 8.828c0.315 2.861-0.203 8.446-0.35998 9.978 3.285 0.36002 6.301-1.397 9.226-3.536 0 0 3.848 8.4 2.948 21.238z" fill="url(#cy)"/>
  </g>
 </g>
</svg>
