<?xml version="1.0" encoding="UTF-8"?>
<svg viewBox="0 0 128 128" xmlns="http://www.w3.org/2000/svg">
 <g transform="matrix(1.919 0 0 1.919 -502.69 -765.12)" fill-rule="evenodd">
  <path d="m289.49 423.2c-6.8952 0.23463-5.0256 1.7718-3.5839 1.9238-0.64381 0.76632-1.0205 3.0401-1.0664 6.4395-0.11557 6.8096-0.25 14.161 3.8964 19.871 2.8924 3.4701 8.2503 2.7468 10.459-1.3164 3.5482-4.783 4.8775-10.523 5.4082-16.279 0.06164-2.3933-0.50041-6.8711-1.4259-8.4277-1.707-1.5282-5.488-1.6486-13.687-2.2109z" fill="#ed6826"/>
  <path d="m285.33 425.24c2.3367-2.1473 6.7576-1.8315 9.8522-0.75786 0.75786 1.1368 7.3891-2.0841 8.7154 0.94732 0.37893 5.305-4.3577 7.0102-8.5259 4.3577-3.5998-0.37893-6.2523 4.3577-10.042-4.5472z" fill="#fefefe" fill-opacity=".12549"/>
  <path d="m285.89 424.67c2.3367-2.1473 6.1892-1.4526 9.2838-0.37893 0.75786 1.1368 7.3891-2.0841 8.7154 0.94732-0.94732 3.7893-4.7366 4.9261-8.9048 2.2736-3.5998-0.37893-5.305 4.9261-9.0943-2.842z" fill="#fefefe" fill-opacity=".12549"/>
  <path d="m304.28 435.1c-0.31577 6.6313-2.3367 11.747-5.4945 17.052-3.2209 1.5157-7.3891 1.3262-8.7154 0.37893-1.8946-6.2523 7.5786-1.5157 14.21-17.431z" fill="#fefefe" fill-opacity=".12549"/>
  <path d="m303.74 437.95c-0.31577 6.6313-1.7683 8.3364-4.9261 13.641-3.2209 1.5157-6.0629 2.842-7.3891 1.8946-1.8946-6.2523 5.6839 0.37893 12.315-15.536z" fill="#fefefe" fill-opacity=".12549"/>
  <path d="m289 422.31c-6.8952 0.23463-13.22 1.9781-19.375 5.2812 2.6304 1.0972 5.4082-0.70014 7.9688-0.59375 2.09-0.38288 5.4333-1.5894 6.875-1.4375-0.64381 0.76632-0.64159 2.8506-0.6875 6.25-0.11557 6.8096 0.69733 14.54 4.8438 20.25 2.8924 3.4701 9.1976 3.1257 11.406-0.9375 3.5482-4.783 4.688-10.712 5.2188-16.469 0.06164-2.3933 0.82585-7.629 0.46875-9.375 4.1664-0.58086 11.541 2.1835 15.406 3.9375-0.8265-2.4543-2.9998-3.0184-5.0938-3.5625-8.1989-2.7344-18.453-3.3499-27.031-3.3438zm0.1875 1.875c2.1029-0.07278 4.7472 0.59629 5.4062 2.2812 0.70524 2.4025-0.31544 4.8737 0 7.3125-0.16254 4.7775-0.33744 9.5663-0.5 14.344 2.0498-1.8308 1.0708-4.934 1.25-7.2812 0.83404-4.8865-0.2745-9.7365 0.875-14.594 0.50796-1.114 1.6925-1.9367 2.9375-1.875 3.6146 0.48504 5.429 4.6461 4.8125 7.9375-0.21255 6.8104-1.8419 13.316-6.25 18.781-2.927 3.0259-8.0978 1.6099-9.5312-2.2812-3.0677-5.3793-2.2826-11.009-2.5-17-0.03714-2.5646 0.03379-7.7056 1.6562-7.3125 0.48228-0.1805 1.1428-0.28824 1.8438-0.3125zm-23.531 0.71875c-0.58454 1.3579-0.36776 2.8856-0.25 4.3125 0.35808 2.096 1.5713 4.1661 3.5625 5.0625 1.2628 0.5039 5.4093 0.73813 5.5625 0.03125-0.02361-0.52977-3.4847-1.1808-4.625-1.375-1.5841-0.39592-2.149-1.4494-2.6562-2.9375-0.49517-1.3866-1.2767-4.8704-1.5938-5.0938zm60.281 0.6875c-0.63617-0.02062 0.13281 4.7874-0.375 6-0.52266 1.1482-1.6497 1.9038-2.8438 2.2188-1.2241 0.36152-2.5231 0.35811-3.5938 1.0312 0.96083 1.1955 5.148 0.38177 6.25-0.40625 1.4938-1.2631 2.0293-3.3726 1.6875-5.25-0.16795-1.2499-0.58014-2.46-1.125-3.5938z"/>
 </g>
</svg>
